M48
; DRILL file KiCad 10.0.5 date 2026-07-28T02:09:16
; FORMAT={-:-/ absolute / metric / decimal}
; #@! TF.CreationDate,2026-07-28T02:09:16-07:00
; #@! TF.GenerationSoftware,Kicad,Pcbnew,10.0.5
; #@! TF.FileFunction,MixedPlating,1,2
FMAT,2
METRIC
; #@! TA.AperFunction,Plated,PTH,ViaDrill
T1C0.300
; #@! TA.AperFunction,Plated,PTH,ComponentDrill
T2C0.600
; #@! TA.AperFunction,Plated,PTH,ComponentDrill
T3C1.000
; #@! TA.AperFunction,Plated,PTH,ComponentDrill
T4C1.100
; #@! TA.AperFunction,NonPlated,NPTH,ComponentDrill
T5C0.650
; #@! TA.AperFunction,NonPlated,NPTH,ComponentDrill
T6C2.700
%
G90
G05
T1
X83.819Y-112.395
X84.252Y-90.045
X85.257Y-110.928
X86.451Y-113.195
X86.594Y-67.128
X86.986Y-54.25
X87.003Y-117.599
X87.195Y-109.837
X87.595Y-84.632
X87.995Y-109.809
X88.634Y-117.023
X88.716Y-118.161
X90.886Y-80.212
X91.259Y-116.529
X91.647Y-117.765
X92.63Y-110.072
X93.8Y-100.487
X93.8Y-108.052
X94.791Y-110.773
X96.283Y-116.795
X97.616Y-84.011
X99.03Y-102.25
X99.219Y-111.933
X106.405Y-82.592
X109.299Y-91.333
X111.399Y-54.364
X114.588Y-103.133
X117.417Y-77.372
X118.57Y-64.855
X118.765Y-89.18
X122.436Y-69.452
X128.067Y-72.493
X136.073Y-55.13
X138.361Y-110.371
X140.728Y-90.539
X144.276Y-90.033
X145.999Y-111.233
X147.079Y-69.301
X149.44Y-111.081
X154.234Y-70.37
X155.207Y-111.319
X156.114Y-112.94
X156.687Y-109.264
X157.103Y-110.708
X157.269Y-112.067
X158.358Y-111.41
X172.285Y-90.539
X181.792Y-67.837
X183.082Y-90.539
X183.824Y-68.427
X192.739Y-54.349
X192.809Y-84.586
X192.918Y-85.358
X195.181Y-66.911
X195.783Y-73.253
X203.685Y-56.156
X204.856Y-55.044
X205.509Y-83.837
X215.061Y-120.563
X216.836Y-113.005
T3
X141.675Y-118.165
X141.675Y-120.705
X141.675Y-123.245
X141.675Y-125.785
X141.675Y-128.325
X141.675Y-130.865
X162.43Y-114.355
X162.43Y-116.895
X162.43Y-119.435
X164.97Y-114.355
X164.97Y-116.895
X164.97Y-119.435
T4
X84.0Y-46.0
X84.0Y-50.5
X84.0Y-58.0
X84.0Y-62.5
X84.0Y-70.0
X84.0Y-74.5
X84.0Y-82.0
X84.0Y-86.5
X84.0Y-94.0
X84.0Y-98.5
X90.5Y-46.0
X90.5Y-50.5
X90.5Y-58.0
X90.5Y-62.5
X90.5Y-70.0
X90.5Y-74.5
X90.5Y-82.0
X90.5Y-86.5
X90.5Y-94.0
X90.5Y-98.5
X96.0Y-46.0
X96.0Y-50.5
X96.0Y-58.0
X96.0Y-62.5
X96.0Y-70.0
X96.0Y-74.5
X96.0Y-82.0
X96.0Y-86.5
X96.0Y-94.0
X96.0Y-98.5
X102.5Y-46.0
X102.5Y-50.5
X102.5Y-58.0
X102.5Y-62.5
X102.5Y-70.0
X102.5Y-74.5
X102.5Y-82.0
X102.5Y-86.5
X102.5Y-94.0
X102.5Y-98.5
X108.0Y-46.0
X108.0Y-50.5
X108.0Y-58.0
X108.0Y-62.5
X108.0Y-70.0
X108.0Y-74.5
X108.0Y-82.0
X108.0Y-86.5
X114.5Y-46.0
X114.5Y-50.5
X114.5Y-58.0
X114.5Y-62.5
X114.5Y-70.0
X114.5Y-74.5
X114.5Y-82.0
X114.5Y-86.5
X120.0Y-46.0
X120.0Y-50.5
X120.0Y-58.0
X120.0Y-62.5
X120.0Y-70.0
X120.0Y-74.5
X120.0Y-82.0
X120.0Y-86.5
X126.5Y-46.0
X126.5Y-50.5
X126.5Y-58.0
X126.5Y-62.5
X126.5Y-70.0
X126.5Y-74.5
X126.5Y-82.0
X126.5Y-86.5
X132.0Y-46.0
X132.0Y-50.5
X132.0Y-58.0
X132.0Y-62.5
X132.0Y-70.0
X132.0Y-74.5
X132.0Y-82.0
X132.0Y-86.5
X132.0Y-94.0
X132.0Y-98.5
X138.5Y-46.0
X138.5Y-50.5
X138.5Y-58.0
X138.5Y-62.5
X138.5Y-70.0
X138.5Y-74.5
X138.5Y-82.0
X138.5Y-86.5
X138.5Y-94.0
X138.5Y-98.5
X144.0Y-46.0
X144.0Y-50.5
X144.0Y-58.0
X144.0Y-62.5
X144.0Y-70.0
X144.0Y-74.5
X144.0Y-82.0
X144.0Y-86.5
X150.5Y-46.0
X150.5Y-50.5
X150.5Y-58.0
X150.5Y-62.5
X150.5Y-70.0
X150.5Y-74.5
X150.5Y-82.0
X150.5Y-86.5
X156.0Y-46.0
X156.0Y-50.5
X156.0Y-58.0
X156.0Y-62.5
X156.0Y-70.0
X156.0Y-74.5
X156.0Y-82.0
X156.0Y-86.5
X162.5Y-46.0
X162.5Y-50.5
X162.5Y-58.0
X162.5Y-62.5
X162.5Y-70.0
X162.5Y-74.5
X162.5Y-82.0
X162.5Y-86.5
X168.0Y-46.0
X168.0Y-50.5
X168.0Y-58.0
X168.0Y-62.5
X168.0Y-70.0
X168.0Y-74.5
X168.0Y-82.0
X168.0Y-86.5
X168.0Y-94.0
X168.0Y-98.5
X174.5Y-46.0
X174.5Y-50.5
X174.5Y-58.0
X174.5Y-62.5
X174.5Y-70.0
X174.5Y-74.5
X174.5Y-82.0
X174.5Y-86.5
X174.5Y-94.0
X174.5Y-98.5
X180.0Y-46.0
X180.0Y-50.5
X180.0Y-58.0
X180.0Y-62.5
X180.0Y-70.0
X180.0Y-74.5
X180.0Y-82.0
X180.0Y-86.5
X180.0Y-94.0
X180.0Y-98.5
X186.5Y-46.0
X186.5Y-50.5
X186.5Y-58.0
X186.5Y-62.5
X186.5Y-70.0
X186.5Y-74.5
X186.5Y-82.0
X186.5Y-86.5
X186.5Y-94.0
X186.5Y-98.5
X192.0Y-46.0
X192.0Y-50.5
X192.0Y-58.0
X192.0Y-62.5
X192.0Y-70.0
X192.0Y-74.5
X192.0Y-82.0
X192.0Y-86.5
X192.0Y-94.0
X192.0Y-98.5
X198.5Y-46.0
X198.5Y-50.5
X198.5Y-58.0
X198.5Y-62.5
X198.5Y-70.0
X198.5Y-74.5
X198.5Y-82.0
X198.5Y-86.5
X198.5Y-94.0
X198.5Y-98.5
X204.0Y-46.0
X204.0Y-50.5
X204.0Y-58.0
X204.0Y-62.5
X204.0Y-70.0
X204.0Y-74.5
X204.0Y-82.0
X204.0Y-86.5
X204.0Y-94.0
X204.0Y-98.5
X210.5Y-46.0
X210.5Y-50.5
X210.5Y-58.0
X210.5Y-62.5
X210.5Y-70.0
X210.5Y-74.5
X210.5Y-82.0
X210.5Y-86.5
X210.5Y-94.0
X210.5Y-98.5
X216.0Y-46.0
X216.0Y-50.5
X216.0Y-94.0
X216.0Y-98.5
X222.5Y-46.0
X222.5Y-50.5
X222.5Y-94.0
X222.5Y-98.5
T5
X219.75Y-111.865
X219.75Y-117.645
T6
X78.0Y-40.0
X78.0Y-138.125
X222.0Y-40.0
X222.0Y-138.125
T2
X218.67Y-110.435G85X219.77Y-110.435
G05
X218.67Y-119.075G85X219.77Y-119.075
G05
X223.1Y-110.435G85X223.7Y-110.435
G05
X223.1Y-119.075G85X223.7Y-119.075
G05
M30
