%TF.GenerationSoftware,KiCad,Pcbnew,10.0.5*%
%TF.CreationDate,2026-07-28T02:09:15-07:00*%
%TF.ProjectId,workboy,776f726b-626f-4792-9e6b-696361645f70,rev?*%
%TF.SameCoordinates,Original*%
%TF.FileFunction,Copper,L2,Bot*%
%TF.FilePolarity,Positive*%
%FSLAX46Y46*%
G04 Gerber Fmt 4.6, Leading zero omitted, Abs format (unit mm)*
G04 Created by KiCad (PCBNEW 10.0.5) date 2026-07-28 02:09:15*
%MOMM*%
%LPD*%
G01*
G04 APERTURE LIST*
%TA.AperFunction,ComponentPad*%
%ADD10C,2.000000*%
%TD*%
%TA.AperFunction,ComponentPad*%
%ADD11R,1.700000X1.700000*%
%TD*%
%TA.AperFunction,ComponentPad*%
%ADD12C,1.700000*%
%TD*%
%TA.AperFunction,ComponentPad*%
%ADD13O,2.100000X1.000000*%
%TD*%
%TA.AperFunction,ComponentPad*%
%ADD14O,1.600000X1.000000*%
%TD*%
%TA.AperFunction,ViaPad*%
%ADD15C,0.600000*%
%TD*%
%TA.AperFunction,Conductor*%
%ADD16C,0.250000*%
%TD*%
G04 APERTURE END LIST*
D10*
%TO.P,SW46,1*%
%TO.N,ROW6*%
X84000000Y-94000000D03*
X90500000Y-94000000D03*
%TO.P,SW46,2*%
%TO.N,KEY46*%
X84000000Y-98500000D03*
X90500000Y-98500000D03*
%TD*%
%TO.P,SW38,1*%
%TO.N,ROW5*%
X120000000Y-82000000D03*
X126500000Y-82000000D03*
%TO.P,SW38,2*%
%TO.N,KEY38*%
X120000000Y-86500000D03*
X126500000Y-86500000D03*
%TD*%
%TO.P,SW4,1*%
%TO.N,ROW0*%
X120000000Y-46000000D03*
X126500000Y-46000000D03*
%TO.P,SW4,2*%
%TO.N,KEY4*%
X120000000Y-50500000D03*
X126500000Y-50500000D03*
%TD*%
%TO.P,SW43,1*%
%TO.N,ROW6*%
X180000000Y-82000000D03*
X186500000Y-82000000D03*
%TO.P,SW43,2*%
%TO.N,KEY43*%
X180000000Y-86500000D03*
X186500000Y-86500000D03*
%TD*%
%TO.P,SW31,1*%
%TO.N,ROW4*%
X168000000Y-70000000D03*
X174500000Y-70000000D03*
%TO.P,SW31,2*%
%TO.N,KEY31*%
X168000000Y-74500000D03*
X174500000Y-74500000D03*
%TD*%
%TO.P,SW45,1*%
%TO.N,ROW6*%
X204000000Y-82000000D03*
X210500000Y-82000000D03*
%TO.P,SW45,2*%
%TO.N,KEY45*%
X204000000Y-86500000D03*
X210500000Y-86500000D03*
%TD*%
D11*
%TO.P,J2,1*%
%TO.N,MCU_MISO*%
X162430000Y-114355000D03*
D12*
%TO.P,J2,2*%
%TO.N,+5V*%
X164970000Y-114355000D03*
%TO.P,J2,3*%
%TO.N,MCU_SCK*%
X162430000Y-116895000D03*
%TO.P,J2,4*%
%TO.N,MCU_MOSI*%
X164970000Y-116895000D03*
%TO.P,J2,5*%
%TO.N,nRESET*%
X162430000Y-119435000D03*
%TO.P,J2,6*%
%TO.N,GND*%
X164970000Y-119435000D03*
%TD*%
D10*
%TO.P,SW11,1*%
%TO.N,ROW1*%
X204000000Y-46000000D03*
X210500000Y-46000000D03*
%TO.P,SW11,2*%
%TO.N,KEY11*%
X204000000Y-50500000D03*
X210500000Y-50500000D03*
%TD*%
%TO.P,SW33,1*%
%TO.N,ROW4*%
X192000000Y-70000000D03*
X198500000Y-70000000D03*
%TO.P,SW33,2*%
%TO.N,KEY33*%
X192000000Y-74500000D03*
X198500000Y-74500000D03*
%TD*%
%TO.P,SW41,1*%
%TO.N,ROW5*%
X156000000Y-82000000D03*
X162500000Y-82000000D03*
%TO.P,SW41,2*%
%TO.N,KEY41*%
X156000000Y-86500000D03*
X162500000Y-86500000D03*
%TD*%
%TO.P,SW40,1*%
%TO.N,ROW5*%
X144000000Y-82000000D03*
X150500000Y-82000000D03*
%TO.P,SW40,2*%
%TO.N,KEY40*%
X144000000Y-86500000D03*
X150500000Y-86500000D03*
%TD*%
%TO.P,SW42,1*%
%TO.N,ROW5*%
X168000000Y-82000000D03*
X174500000Y-82000000D03*
%TO.P,SW42,2*%
%TO.N,KEY42*%
X168000000Y-86500000D03*
X174500000Y-86500000D03*
%TD*%
%TO.P,SW49,1*%
%TO.N,ROW6*%
X168000000Y-94000000D03*
X174500000Y-94000000D03*
%TO.P,SW49,2*%
%TO.N,KEY49*%
X168000000Y-98500000D03*
X174500000Y-98500000D03*
%TD*%
%TO.P,SW32,1*%
%TO.N,ROW4*%
X180000000Y-70000000D03*
X186500000Y-70000000D03*
%TO.P,SW32,2*%
%TO.N,KEY32*%
X180000000Y-74500000D03*
X186500000Y-74500000D03*
%TD*%
%TO.P,SW22,1*%
%TO.N,ROW3*%
X192000000Y-58000000D03*
X198500000Y-58000000D03*
%TO.P,SW22,2*%
%TO.N,KEY22*%
X192000000Y-62500000D03*
X198500000Y-62500000D03*
%TD*%
%TO.P,SW16,1*%
%TO.N,ROW2*%
X120000000Y-58000000D03*
X126500000Y-58000000D03*
%TO.P,SW16,2*%
%TO.N,KEY16*%
X120000000Y-62500000D03*
X126500000Y-62500000D03*
%TD*%
%TO.P,SW27,1*%
%TO.N,ROW3*%
X120000000Y-70000000D03*
X126500000Y-70000000D03*
%TO.P,SW27,2*%
%TO.N,KEY27*%
X120000000Y-74500000D03*
X126500000Y-74500000D03*
%TD*%
%TO.P,SW44,1*%
%TO.N,ROW6*%
X192000000Y-82000000D03*
X198500000Y-82000000D03*
%TO.P,SW44,2*%
%TO.N,KEY44*%
X192000000Y-86500000D03*
X198500000Y-86500000D03*
%TD*%
%TO.P,SW34,1*%
%TO.N,ROW4*%
X204000000Y-70000000D03*
X210500000Y-70000000D03*
%TO.P,SW34,2*%
%TO.N,KEY34*%
X204000000Y-74500000D03*
X210500000Y-74500000D03*
%TD*%
%TO.P,SW9,1*%
%TO.N,ROW1*%
X180000000Y-46000000D03*
X186500000Y-46000000D03*
%TO.P,SW9,2*%
%TO.N,KEY9*%
X180000000Y-50500000D03*
X186500000Y-50500000D03*
%TD*%
%TO.P,SW48,1*%
%TO.N,ROW6*%
X132000000Y-94000000D03*
X138500000Y-94000000D03*
%TO.P,SW48,2*%
%TO.N,KEY48*%
X132000000Y-98500000D03*
X138500000Y-98500000D03*
%TD*%
%TO.P,SW50,1*%
%TO.N,ROW7*%
X180000000Y-94000000D03*
X186500000Y-94000000D03*
%TO.P,SW50,2*%
%TO.N,KEY50*%
X180000000Y-98500000D03*
X186500000Y-98500000D03*
%TD*%
%TO.P,SW37,1*%
%TO.N,ROW5*%
X108000000Y-82000000D03*
X114500000Y-82000000D03*
%TO.P,SW37,2*%
%TO.N,KEY37*%
X108000000Y-86500000D03*
X114500000Y-86500000D03*
%TD*%
%TO.P,SW20,1*%
%TO.N,ROW2*%
X168000000Y-58000000D03*
X174500000Y-58000000D03*
%TO.P,SW20,2*%
%TO.N,KEY20*%
X168000000Y-62500000D03*
X174500000Y-62500000D03*
%TD*%
%TO.P,SW3,1*%
%TO.N,ROW0*%
X108000000Y-46000000D03*
X114500000Y-46000000D03*
%TO.P,SW3,2*%
%TO.N,KEY3*%
X108000000Y-50500000D03*
X114500000Y-50500000D03*
%TD*%
%TO.P,SW6,1*%
%TO.N,ROW0*%
X144000000Y-46000000D03*
X150500000Y-46000000D03*
%TO.P,SW6,2*%
%TO.N,KEY6*%
X144000000Y-50500000D03*
X150500000Y-50500000D03*
%TD*%
%TO.P,SW17,1*%
%TO.N,ROW2*%
X132000000Y-58000000D03*
X138500000Y-58000000D03*
%TO.P,SW17,2*%
%TO.N,KEY17*%
X132000000Y-62500000D03*
X138500000Y-62500000D03*
%TD*%
%TO.P,SW12,1*%
%TO.N,ROW1*%
X216000000Y-46000000D03*
X222500000Y-46000000D03*
%TO.P,SW12,2*%
%TO.N,KEY12*%
X216000000Y-50500000D03*
X222500000Y-50500000D03*
%TD*%
%TO.P,SW51,1*%
%TO.N,ROW7*%
X192000000Y-94000000D03*
X198500000Y-94000000D03*
%TO.P,SW51,2*%
%TO.N,KEY51*%
X192000000Y-98500000D03*
X198500000Y-98500000D03*
%TD*%
%TO.P,SW15,1*%
%TO.N,ROW2*%
X108000000Y-58000000D03*
X114500000Y-58000000D03*
%TO.P,SW15,2*%
%TO.N,KEY15*%
X108000000Y-62500000D03*
X114500000Y-62500000D03*
%TD*%
D11*
%TO.P,J1,1*%
%TO.N,LINK_VCC*%
X141675000Y-118165000D03*
D12*
%TO.P,J1,2*%
%TO.N,LINK_SO*%
X141675000Y-120705000D03*
%TO.P,J1,3*%
%TO.N,LINK_SI*%
X141675000Y-123245000D03*
%TO.P,J1,4*%
%TO.N,LINK_SD*%
X141675000Y-125785000D03*
%TO.P,J1,5*%
%TO.N,LINK_SC*%
X141675000Y-128325000D03*
%TO.P,J1,6*%
%TO.N,GND*%
X141675000Y-130865000D03*
%TD*%
D10*
%TO.P,SW8,1*%
%TO.N,ROW1*%
X168000000Y-46000000D03*
X174500000Y-46000000D03*
%TO.P,SW8,2*%
%TO.N,KEY8*%
X168000000Y-50500000D03*
X174500000Y-50500000D03*
%TD*%
%TO.P,SW14,1*%
%TO.N,ROW1*%
X96000000Y-58000000D03*
X102500000Y-58000000D03*
%TO.P,SW14,2*%
%TO.N,KEY14*%
X96000000Y-62500000D03*
X102500000Y-62500000D03*
%TD*%
%TO.P,SW47,1*%
%TO.N,ROW6*%
X96000000Y-94000000D03*
X102500000Y-94000000D03*
%TO.P,SW47,2*%
%TO.N,KEY47*%
X96000000Y-98500000D03*
X102500000Y-98500000D03*
%TD*%
%TO.P,SW36,1*%
%TO.N,ROW5*%
X96000000Y-82000000D03*
X102500000Y-82000000D03*
%TO.P,SW36,2*%
%TO.N,KEY36*%
X96000000Y-86500000D03*
X102500000Y-86500000D03*
%TD*%
%TO.P,SW39,1*%
%TO.N,ROW5*%
X132000000Y-82000000D03*
X138500000Y-82000000D03*
%TO.P,SW39,2*%
%TO.N,KEY39*%
X132000000Y-86500000D03*
X138500000Y-86500000D03*
%TD*%
%TO.P,SW1,1*%
%TO.N,ROW0*%
X84000000Y-46000000D03*
X90500000Y-46000000D03*
%TO.P,SW1,2*%
%TO.N,KEY1*%
X84000000Y-50500000D03*
X90500000Y-50500000D03*
%TD*%
%TO.P,SW52,1*%
%TO.N,ROW7*%
X204000000Y-94000000D03*
X210500000Y-94000000D03*
%TO.P,SW52,2*%
%TO.N,KEY52*%
X204000000Y-98500000D03*
X210500000Y-98500000D03*
%TD*%
%TO.P,SW30,1*%
%TO.N,ROW4*%
X156000000Y-70000000D03*
X162500000Y-70000000D03*
%TO.P,SW30,2*%
%TO.N,KEY30*%
X156000000Y-74500000D03*
X162500000Y-74500000D03*
%TD*%
%TO.P,SW2,1*%
%TO.N,ROW0*%
X96000000Y-46000000D03*
X102500000Y-46000000D03*
%TO.P,SW2,2*%
%TO.N,KEY2*%
X96000000Y-50500000D03*
X102500000Y-50500000D03*
%TD*%
%TO.P,SW29,1*%
%TO.N,ROW4*%
X144000000Y-70000000D03*
X150500000Y-70000000D03*
%TO.P,SW29,2*%
%TO.N,KEY29*%
X144000000Y-74500000D03*
X150500000Y-74500000D03*
%TD*%
%TO.P,SW24,1*%
%TO.N,ROW3*%
X84000000Y-70000000D03*
X90500000Y-70000000D03*
%TO.P,SW24,2*%
%TO.N,KEY24*%
X84000000Y-74500000D03*
X90500000Y-74500000D03*
%TD*%
%TO.P,SW10,1*%
%TO.N,ROW1*%
X192000000Y-46000000D03*
X198500000Y-46000000D03*
%TO.P,SW10,2*%
%TO.N,KEY10*%
X192000000Y-50500000D03*
X198500000Y-50500000D03*
%TD*%
%TO.P,SW19,1*%
%TO.N,ROW2*%
X156000000Y-58000000D03*
X162500000Y-58000000D03*
%TO.P,SW19,2*%
%TO.N,KEY19*%
X156000000Y-62500000D03*
X162500000Y-62500000D03*
%TD*%
%TO.P,SW23,1*%
%TO.N,ROW3*%
X204000000Y-58000000D03*
X210500000Y-58000000D03*
%TO.P,SW23,2*%
%TO.N,KEY23*%
X204000000Y-62500000D03*
X210500000Y-62500000D03*
%TD*%
%TO.P,SW25,1*%
%TO.N,ROW3*%
X96000000Y-70000000D03*
X102500000Y-70000000D03*
%TO.P,SW25,2*%
%TO.N,KEY25*%
X96000000Y-74500000D03*
X102500000Y-74500000D03*
%TD*%
%TO.P,SW21,1*%
%TO.N,ROW2*%
X180000000Y-58000000D03*
X186500000Y-58000000D03*
%TO.P,SW21,2*%
%TO.N,KEY21*%
X180000000Y-62500000D03*
X186500000Y-62500000D03*
%TD*%
%TO.P,SW35,1*%
%TO.N,ROW4*%
X84000000Y-82000000D03*
X90500000Y-82000000D03*
%TO.P,SW35,2*%
%TO.N,KEY35*%
X84000000Y-86500000D03*
X90500000Y-86500000D03*
%TD*%
%TO.P,SW18,1*%
%TO.N,ROW2*%
X144000000Y-58000000D03*
X150500000Y-58000000D03*
%TO.P,SW18,2*%
%TO.N,KEY18*%
X144000000Y-62500000D03*
X150500000Y-62500000D03*
%TD*%
%TO.P,SW53,1*%
%TO.N,ROW7*%
X216000000Y-94000000D03*
X222500000Y-94000000D03*
%TO.P,SW53,2*%
%TO.N,KEY53*%
X216000000Y-98500000D03*
X222500000Y-98500000D03*
%TD*%
%TO.P,SW13,1*%
%TO.N,ROW1*%
X84000000Y-58000000D03*
X90500000Y-58000000D03*
%TO.P,SW13,2*%
%TO.N,KEY13*%
X84000000Y-62500000D03*
X90500000Y-62500000D03*
%TD*%
%TO.P,SW28,1*%
%TO.N,ROW3*%
X132000000Y-70000000D03*
X138500000Y-70000000D03*
%TO.P,SW28,2*%
%TO.N,KEY28*%
X132000000Y-74500000D03*
X138500000Y-74500000D03*
%TD*%
%TO.P,SW26,1*%
%TO.N,ROW3*%
X108000000Y-70000000D03*
X114500000Y-70000000D03*
%TO.P,SW26,2*%
%TO.N,KEY26*%
X108000000Y-74500000D03*
X114500000Y-74500000D03*
%TD*%
%TO.P,SW5,1*%
%TO.N,ROW0*%
X132000000Y-46000000D03*
X138500000Y-46000000D03*
%TO.P,SW5,2*%
%TO.N,KEY5*%
X132000000Y-50500000D03*
X138500000Y-50500000D03*
%TD*%
D13*
%TO.P,J3,SH*%
%TO.N,GND*%
X219220000Y-119075000D03*
D14*
X223400000Y-119075000D03*
D13*
X219220000Y-110435000D03*
D14*
X223400000Y-110435000D03*
%TD*%
D10*
%TO.P,SW7,1*%
%TO.N,ROW0*%
X156000000Y-46000000D03*
X162500000Y-46000000D03*
%TO.P,SW7,2*%
%TO.N,KEY7*%
X156000000Y-50500000D03*
X162500000Y-50500000D03*
%TD*%
D15*
%TO.N,ROW6*%
X87002600Y-117599500D03*
%TO.N,ROW5*%
X88633900Y-117022800D03*
%TO.N,KEY38*%
X118764600Y-89179900D03*
%TO.N,ROW0*%
X87995000Y-109809200D03*
%TO.N,+5V*%
X91258900Y-116528900D03*
X156686700Y-109264100D03*
X94791300Y-110772700D03*
%TO.N,GND*%
X138361200Y-110371300D03*
%TO.N,COL3*%
X204856200Y-55043800D03*
X205508700Y-83837100D03*
X93800000Y-108052200D03*
X97616300Y-84010800D03*
X147078800Y-69300600D03*
X93800000Y-100487100D03*
X140728000Y-90538700D03*
%TO.N,COL1*%
X99219100Y-111933000D03*
X128067100Y-72493300D03*
X109299000Y-91333300D03*
X195180700Y-66910700D03*
X192918400Y-85358000D03*
%TO.N,COL6*%
X84252400Y-90045400D03*
X88715800Y-118160600D03*
X181792300Y-67837300D03*
X86594400Y-67127600D03*
X172285200Y-90538700D03*
%TO.N,COL5*%
X117417300Y-77372400D03*
X122436000Y-69451700D03*
X136073400Y-55130000D03*
X114587800Y-103132600D03*
%TO.N,COL0*%
X87595000Y-84631700D03*
X86985500Y-54250000D03*
X183082100Y-90538700D03*
X183824300Y-68427000D03*
%TO.N,ROW4*%
X86451100Y-113195000D03*
%TO.N,COL2*%
X111399100Y-54363600D03*
X192808700Y-84586100D03*
X90885700Y-80212000D03*
X192738900Y-54348700D03*
X92630500Y-110072500D03*
X118570500Y-64854500D03*
%TO.N,COL4*%
X144276300Y-90032700D03*
X203684600Y-56156100D03*
X195783100Y-73252700D03*
X99029700Y-102250000D03*
X106405000Y-82592100D03*
X154234000Y-70369800D03*
%TO.N,MCU_MISO*%
X158358400Y-111410100D03*
%TO.N,MCU_SCK*%
X157103400Y-110707800D03*
%TO.N,MCU_MOSI*%
X157269500Y-112067200D03*
%TO.N,nRESET*%
X156113900Y-112940400D03*
%TO.N,ROW1*%
X87195000Y-109837200D03*
%TO.N,ROW3*%
X83818800Y-112395000D03*
%TO.N,ROW2*%
X85256600Y-110928000D03*
%TO.N,LINK_SO*%
X149439600Y-111080600D03*
%TO.N,LINK_SI*%
X145999500Y-111232500D03*
%TO.N,LINK_SC*%
X155207000Y-111318500D03*
%TO.N,nSS*%
X96283000Y-116795000D03*
X91646700Y-117765200D03*
%TO.N,USB_CC2*%
X216836200Y-113005000D03*
X215060900Y-120562700D03*
%TD*%
%TO.N,ROW6*%
D16*
X85833300Y-116430200D02*
X85833300Y-95833300D01*
X87002600Y-117599500D02*
X85833300Y-116430200D01*
X176563200Y-91936800D02*
X176563200Y-85436800D01*
X174500000Y-94000000D02*
X176563200Y-91936800D01*
X174500000Y-94000000D02*
X168000000Y-94000000D01*
X176563200Y-85436800D02*
X180000000Y-82000000D01*
X85833300Y-95833300D02*
X84000000Y-94000000D01*
%TO.N,ROW5*%
X96000000Y-82000000D02*
X93223300Y-84776700D01*
X102500000Y-82000000D02*
X108000000Y-82000000D01*
X138500000Y-82000000D02*
X132000000Y-82000000D01*
X138500000Y-82000000D02*
X144000000Y-82000000D01*
X93223300Y-84776700D02*
X93223300Y-112433400D01*
X93223300Y-112433400D02*
X88633900Y-117022800D01*
X96000000Y-82000000D02*
X102500000Y-82000000D01*
%TO.N,KEY38*%
X120000000Y-87944500D02*
X118764600Y-89179900D01*
X120000000Y-86500000D02*
X120000000Y-87944500D01*
%TO.N,ROW0*%
X87995000Y-109809200D02*
X88171700Y-109632500D01*
X88171700Y-48328300D02*
X90500000Y-46000000D01*
X88171700Y-109632500D02*
X88171700Y-48328300D01*
%TO.N,+5V*%
X94791300Y-112996500D02*
X91258900Y-116528900D01*
X164970000Y-114355000D02*
X159879100Y-109264100D01*
X94791300Y-110772700D02*
X94791300Y-112996500D01*
X159879100Y-109264100D02*
X156686700Y-109264100D01*
%TO.N,GND*%
X141675000Y-130865000D02*
X138361200Y-127551200D01*
X153540000Y-130865000D02*
X164970000Y-119435000D01*
X223400000Y-110435000D02*
X222323300Y-110435000D01*
X141675000Y-130865000D02*
X153540000Y-130865000D01*
X138361200Y-127551200D02*
X138361200Y-110371300D01*
X222323300Y-119075000D02*
X222323300Y-110435000D01*
X223400000Y-119075000D02*
X222323300Y-119075000D01*
%TO.N,COL3*%
X93800000Y-100487100D02*
X93800000Y-94050000D01*
X140728000Y-87107700D02*
X145306600Y-82529100D01*
X205508700Y-55696300D02*
X205508700Y-83837100D01*
X97616300Y-90233700D02*
X97616300Y-84010800D01*
X93800000Y-94050000D02*
X97616300Y-90233700D01*
X140728000Y-90538700D02*
X140728000Y-87107700D01*
X93800000Y-100487100D02*
X93800000Y-108052200D01*
X142693600Y-73685800D02*
X147078800Y-69300600D01*
X145306600Y-82529100D02*
X145306600Y-81156500D01*
X204856200Y-55043800D02*
X205508700Y-55696300D01*
X145306600Y-81156500D02*
X142693600Y-78543500D01*
X142693600Y-78543500D02*
X142693600Y-73685800D01*
%TO.N,KEY37*%
X114500000Y-86500000D02*
X108000000Y-86500000D01*
%TO.N,COL1*%
X109299000Y-101853100D02*
X109299000Y-91333300D01*
X192918400Y-85358000D02*
X195180700Y-83095700D01*
X195180700Y-83095700D02*
X195180700Y-66910700D01*
X111472300Y-91333300D02*
X109299000Y-91333300D01*
X128067100Y-72493300D02*
X124156700Y-72493300D01*
X115776700Y-78142400D02*
X115776700Y-87028900D01*
X124156700Y-72493300D02*
X120483300Y-76166700D01*
X117752400Y-76166700D02*
X115776700Y-78142400D01*
X120483300Y-76166700D02*
X117752400Y-76166700D01*
X115776700Y-87028900D02*
X111472300Y-91333300D01*
X99219100Y-111933000D02*
X109299000Y-101853100D01*
%TO.N,COL6*%
X82707000Y-88500000D02*
X82707000Y-79820000D01*
X181792300Y-78031500D02*
X176020300Y-83803500D01*
X176020300Y-83803500D02*
X176020300Y-86803600D01*
X82690600Y-109829000D02*
X84681400Y-111819800D01*
X82707000Y-79820000D02*
X86594400Y-75932600D01*
X84252400Y-90045400D02*
X82690600Y-91607200D01*
X176020300Y-86803600D02*
X172285200Y-90538700D01*
X86594400Y-75932600D02*
X86594400Y-67127600D01*
X84252400Y-90045400D02*
X82707000Y-88500000D01*
X84681400Y-116662200D02*
X86663800Y-118644600D01*
X181792300Y-67837300D02*
X181792300Y-78031500D01*
X84681400Y-111819800D02*
X84681400Y-116662200D01*
X82690600Y-91607200D02*
X82690600Y-109829000D01*
X86663800Y-118644600D02*
X88231800Y-118644600D01*
X88231800Y-118644600D02*
X88715800Y-118160600D01*
%TO.N,COL5*%
X122436000Y-69451700D02*
X136073400Y-55814300D01*
X114587800Y-103132600D02*
X117417300Y-100303100D01*
X117417300Y-100303100D02*
X117417300Y-77372400D01*
X136073400Y-55814300D02*
X136073400Y-55130000D01*
%TO.N,COL0*%
X87595000Y-84631700D02*
X87595000Y-54859500D01*
X87595000Y-54859500D02*
X86985500Y-54250000D01*
X183824300Y-89796500D02*
X183824300Y-68427000D01*
X183082100Y-90538700D02*
X183824300Y-89796500D01*
%TO.N,KEY18*%
X150500000Y-62500000D02*
X144000000Y-62500000D01*
%TO.N,ROW4*%
X180000000Y-70000000D02*
X174500000Y-70000000D01*
X156000000Y-70000000D02*
X155793100Y-69793100D01*
X155793100Y-69793100D02*
X150706900Y-69793100D01*
X100583400Y-71916600D02*
X90500000Y-82000000D01*
X84000000Y-82000000D02*
X86451100Y-84451100D01*
X150706900Y-69793100D02*
X150500000Y-70000000D01*
X144000000Y-70000000D02*
X142083400Y-71916600D01*
X86451100Y-84451100D02*
X86451100Y-113195000D01*
X142083400Y-71916600D02*
X100583400Y-71916600D01*
X162500000Y-70000000D02*
X168000000Y-70000000D01*
%TO.N,KEY31*%
X174500000Y-74500000D02*
X168000000Y-74500000D01*
%TO.N,KEY17*%
X138500000Y-62500000D02*
X132000000Y-62500000D01*
%TO.N,COL2*%
X90885700Y-80212000D02*
X90438300Y-80212000D01*
X103769400Y-64854600D02*
X111399100Y-64854600D01*
X89223300Y-106665300D02*
X92630500Y-110072500D01*
X89223300Y-81427000D02*
X89223300Y-106665300D01*
X193306400Y-84088400D02*
X192808700Y-84586100D01*
X111399100Y-64854600D02*
X111399100Y-64854500D01*
X111399100Y-64854500D02*
X118570500Y-64854500D01*
X90438300Y-80212000D02*
X89223300Y-81427000D01*
X90885700Y-77738300D02*
X103769400Y-64854600D01*
X193306400Y-54916200D02*
X193306400Y-84088400D01*
X90885700Y-80212000D02*
X90885700Y-77738300D01*
X192738900Y-54348700D02*
X193306400Y-54916200D01*
X111399100Y-64854500D02*
X111399100Y-54363600D01*
%TO.N,COL4*%
X195783100Y-67022500D02*
X199776700Y-63028900D01*
X195783100Y-73252700D02*
X195783100Y-67022500D01*
X154234000Y-80075000D02*
X144276300Y-90032700D01*
X99029700Y-99995600D02*
X106405000Y-92620300D01*
X99029700Y-102250000D02*
X99029700Y-99995600D01*
X199776700Y-63028900D02*
X199776700Y-60064000D01*
X154234000Y-70369800D02*
X154234000Y-80075000D01*
X106405000Y-92620300D02*
X106405000Y-82592100D01*
X199776700Y-60064000D02*
X203684600Y-56156100D01*
%TO.N,KEY45*%
X210500000Y-86500000D02*
X204000000Y-86500000D01*
%TO.N,MCU_MISO*%
X161303300Y-114355000D02*
X158358400Y-111410100D01*
X162430000Y-114355000D02*
X161303300Y-114355000D01*
%TO.N,MCU_SCK*%
X156692800Y-111118400D02*
X157103400Y-110707800D01*
X161277500Y-116895000D02*
X156692800Y-112310300D01*
X156692800Y-112310300D02*
X156692800Y-111118400D01*
X162430000Y-116895000D02*
X161277500Y-116895000D01*
%TO.N,MCU_MOSI*%
X163558400Y-115483400D02*
X160685700Y-115483400D01*
X160685700Y-115483400D02*
X157269500Y-112067200D01*
X164970000Y-116895000D02*
X163558400Y-115483400D01*
%TO.N,nRESET*%
X156113900Y-113118900D02*
X156113900Y-112940400D01*
X162430000Y-119435000D02*
X156113900Y-113118900D01*
%TO.N,ROW1*%
X87018300Y-109660500D02*
X87195000Y-109837200D01*
X90500000Y-58000000D02*
X96000000Y-58000000D01*
X87193300Y-84217900D02*
X87018300Y-84392900D01*
X87018300Y-84392900D02*
X87018300Y-109660500D01*
X84000000Y-58000000D02*
X87193300Y-61193300D01*
X87193300Y-61193300D02*
X87193300Y-84217900D01*
%TO.N,KEY49*%
X174500000Y-98500000D02*
X168000000Y-98500000D01*
%TO.N,KEY41*%
X162500000Y-86500000D02*
X156000000Y-86500000D01*
%TO.N,ROW3*%
X186538000Y-59765500D02*
X190234500Y-59765500D01*
X120000000Y-70000000D02*
X120028400Y-70028400D01*
X120028400Y-70028400D02*
X126471600Y-70028400D01*
X177580200Y-68723300D02*
X186538000Y-59765500D01*
X82287400Y-71712600D02*
X82287400Y-110863600D01*
X82287400Y-110863600D02*
X83818800Y-112395000D01*
X84000000Y-70000000D02*
X82287400Y-71712600D01*
X139776700Y-68723300D02*
X177580200Y-68723300D01*
X138500000Y-70000000D02*
X139776700Y-68723300D01*
X190234500Y-59765500D02*
X192000000Y-58000000D01*
X126471600Y-70028400D02*
X126500000Y-70000000D01*
X132000000Y-70000000D02*
X126500000Y-70000000D01*
%TO.N,ROW2*%
X88668500Y-79146100D02*
X88668500Y-112580700D01*
X108000000Y-58000000D02*
X108000000Y-59814600D01*
X156000000Y-58000000D02*
X150500000Y-58000000D01*
X168000000Y-58000000D02*
X162500000Y-58000000D01*
X87204900Y-118220100D02*
X86807400Y-118220100D01*
X86807400Y-118220100D02*
X85256600Y-116669300D01*
X87602300Y-113646900D02*
X87602300Y-117822700D01*
X88668500Y-112580700D02*
X87602300Y-113646900D01*
X87602300Y-117822700D02*
X87204900Y-118220100D01*
X85256600Y-116669300D02*
X85256600Y-110928000D01*
X108000000Y-59814600D02*
X88668500Y-79146100D01*
%TO.N,KEY44*%
X198500000Y-86500000D02*
X192000000Y-86500000D01*
%TO.N,ROW7*%
X210500000Y-94000000D02*
X204000000Y-94000000D01*
X186500000Y-94000000D02*
X180000000Y-94000000D01*
X198500000Y-94000000D02*
X192000000Y-94000000D01*
%TO.N,KEY50*%
X186500000Y-98500000D02*
X180000000Y-98500000D01*
%TO.N,KEY8*%
X174500000Y-50500000D02*
X168000000Y-50500000D01*
%TO.N,KEY52*%
X210500000Y-98500000D02*
X204000000Y-98500000D01*
%TO.N,KEY51*%
X198500000Y-98500000D02*
X192000000Y-98500000D01*
%TO.N,LINK_SO*%
X141675000Y-120705000D02*
X145167600Y-117212400D01*
X145167600Y-117212400D02*
X145167600Y-111185600D01*
X145167600Y-111185600D02*
X145731900Y-110621300D01*
X148980300Y-110621300D02*
X149439600Y-111080600D01*
X145731900Y-110621300D02*
X148980300Y-110621300D01*
%TO.N,LINK_SI*%
X145999500Y-118920500D02*
X145999500Y-111232500D01*
X141675000Y-123245000D02*
X145999500Y-118920500D01*
%TO.N,LINK_SC*%
X155207000Y-114793000D02*
X155207000Y-111318500D01*
X141675000Y-128325000D02*
X155207000Y-114793000D01*
%TO.N,KEY28*%
X138500000Y-74500000D02*
X132000000Y-74500000D01*
%TO.N,KEY30*%
X162500000Y-74500000D02*
X156000000Y-74500000D01*
%TO.N,nSS*%
X95312800Y-117765200D02*
X96283000Y-116795000D01*
X91646700Y-117765200D02*
X95312800Y-117765200D01*
%TO.N,KEY29*%
X150500000Y-74500000D02*
X144000000Y-74500000D01*
%TO.N,USB_CC2*%
X216836200Y-118787400D02*
X216836200Y-113005000D01*
X215060900Y-120562700D02*
X216836200Y-118787400D01*
%TD*%
M02*
