%TF.GenerationSoftware,KiCad,Pcbnew,10.0.5*%
%TF.CreationDate,2026-07-28T02:09:15-07:00*%
%TF.ProjectId,workboy,776f726b-626f-4792-9e6b-696361645f70,rev?*%
%TF.SameCoordinates,Original*%
%TF.FileFunction,Soldermask,Top*%
%TF.FilePolarity,Negative*%
%FSLAX46Y46*%
G04 Gerber Fmt 4.6, Leading zero omitted, Abs format (unit mm)*
G04 Created by KiCad (PCBNEW 10.0.5) date 2026-07-28 02:09:15*
%MOMM*%
%LPD*%
G01*
G04 APERTURE LIST*
G04 Aperture macros list*
%AMRoundRect*
0 Rectangle with rounded corners*
0 $1 Rounding radius*
0 $2 $3 $4 $5 $6 $7 $8 $9 X,Y pos of 4 corners*
0 Add a 4 corners polygon primitive as box body*
4,1,4,$2,$3,$4,$5,$6,$7,$8,$9,$2,$3,0*
0 Add four circle primitives for the rounded corners*
1,1,$1+$1,$2,$3*
1,1,$1+$1,$4,$5*
1,1,$1+$1,$6,$7*
1,1,$1+$1,$8,$9*
0 Add four rect primitives between the rounded corners*
20,1,$1+$1,$2,$3,$4,$5,0*
20,1,$1+$1,$4,$5,$6,$7,0*
20,1,$1+$1,$6,$7,$8,$9,0*
20,1,$1+$1,$8,$9,$2,$3,0*%
G04 Aperture macros list end*
%ADD10C,2.000000*%
%ADD11RoundRect,0.250000X-1.000000X-0.650000X1.000000X-0.650000X1.000000X0.650000X-1.000000X0.650000X0*%
%ADD12RoundRect,0.243750X-0.243750X-0.456250X0.243750X-0.456250X0.243750X0.456250X-0.243750X0.456250X0*%
%ADD13RoundRect,0.225000X-0.225000X-0.375000X0.225000X-0.375000X0.225000X0.375000X-0.225000X0.375000X0*%
%ADD14RoundRect,0.250000X-0.250000X-0.475000X0.250000X-0.475000X0.250000X0.475000X-0.250000X0.475000X0*%
%ADD15RoundRect,0.140000X-0.140000X-0.170000X0.140000X-0.170000X0.140000X0.170000X-0.140000X0.170000X0*%
%ADD16RoundRect,0.135000X-0.135000X-0.185000X0.135000X-0.185000X0.135000X0.185000X-0.135000X0.185000X0*%
%ADD17R,1.700000X1.700000*%
%ADD18C,1.700000*%
%ADD19C,2.700000*%
%ADD20RoundRect,0.137500X-0.600000X-0.137500X0.600000X-0.137500X0.600000X0.137500X-0.600000X0.137500X0*%
%ADD21RoundRect,0.137500X-0.137500X-0.600000X0.137500X-0.600000X0.137500X0.600000X-0.137500X0.600000X0*%
%ADD22C,0.650000*%
%ADD23RoundRect,0.150000X0.575000X-0.150000X0.575000X0.150000X-0.575000X0.150000X-0.575000X-0.150000X0*%
%ADD24RoundRect,0.075000X0.650000X-0.075000X0.650000X0.075000X-0.650000X0.075000X-0.650000X-0.075000X0*%
%ADD25O,2.100000X1.000000*%
%ADD26O,1.600000X1.000000*%
G04 APERTURE END LIST*
D10*
%TO.C,SW46*%
X84000000Y-94000000D03*
X90500000Y-94000000D03*
X84000000Y-98500000D03*
X90500000Y-98500000D03*
%TD*%
%TO.C,SW38*%
X120000000Y-82000000D03*
X126500000Y-82000000D03*
X120000000Y-86500000D03*
X126500000Y-86500000D03*
%TD*%
%TO.C,SW4*%
X120000000Y-46000000D03*
X126500000Y-46000000D03*
X120000000Y-50500000D03*
X126500000Y-50500000D03*
%TD*%
D11*
%TO.C,D54*%
X208000000Y-114755000D03*
X212000000Y-114755000D03*
%TD*%
D12*
%TO.C,LED2*%
X183657500Y-110995000D03*
X185532500Y-110995000D03*
%TD*%
D13*
%TO.C,D11*%
X202350000Y-54250000D03*
X205650000Y-54250000D03*
%TD*%
D10*
%TO.C,SW43*%
X180000000Y-82000000D03*
X186500000Y-82000000D03*
X180000000Y-86500000D03*
X186500000Y-86500000D03*
%TD*%
D13*
%TO.C,D37*%
X106350000Y-90250000D03*
X109650000Y-90250000D03*
%TD*%
%TO.C,D35*%
X82350000Y-90250000D03*
X85650000Y-90250000D03*
%TD*%
%TO.C,D6*%
X142350000Y-54250000D03*
X145650000Y-54250000D03*
%TD*%
D14*
%TO.C,C5*%
X106505000Y-111025000D03*
X108405000Y-111025000D03*
%TD*%
D15*
%TO.C,C4*%
X116585000Y-110505000D03*
X117545000Y-110505000D03*
%TD*%
D13*
%TO.C,D1*%
X82350000Y-54250000D03*
X85650000Y-54250000D03*
%TD*%
%TO.C,D18*%
X142350000Y-66250000D03*
X145650000Y-66250000D03*
%TD*%
D10*
%TO.C,SW31*%
X168000000Y-70000000D03*
X174500000Y-70000000D03*
X168000000Y-74500000D03*
X174500000Y-74500000D03*
%TD*%
D12*
%TO.C,LED3*%
X194057500Y-110995000D03*
X195932500Y-110995000D03*
%TD*%
D13*
%TO.C,D17*%
X130350000Y-66250000D03*
X133650000Y-66250000D03*
%TD*%
%TO.C,D19*%
X154350000Y-66250000D03*
X157650000Y-66250000D03*
%TD*%
D10*
%TO.C,SW45*%
X204000000Y-82000000D03*
X210500000Y-82000000D03*
X204000000Y-86500000D03*
X210500000Y-86500000D03*
%TD*%
D13*
%TO.C,D31*%
X166350000Y-78250000D03*
X169650000Y-78250000D03*
%TD*%
%TO.C,D26*%
X106350000Y-78250000D03*
X109650000Y-78250000D03*
%TD*%
D16*
%TO.C,R10*%
X213490000Y-110500000D03*
X214510000Y-110500000D03*
%TD*%
D12*
%TO.C,LED1*%
X173257500Y-110995000D03*
X175132500Y-110995000D03*
%TD*%
D16*
%TO.C,R7*%
X168485000Y-110515000D03*
X169505000Y-110515000D03*
%TD*%
D13*
%TO.C,D15*%
X106350000Y-66250000D03*
X109650000Y-66250000D03*
%TD*%
%TO.C,D40*%
X142350000Y-90250000D03*
X145650000Y-90250000D03*
%TD*%
%TO.C,D5*%
X130350000Y-54250000D03*
X133650000Y-54250000D03*
%TD*%
D17*
%TO.C,J2*%
X162430000Y-114355000D03*
D18*
X164970000Y-114355000D03*
X162430000Y-116895000D03*
X164970000Y-116895000D03*
X162430000Y-119435000D03*
X164970000Y-119435000D03*
%TD*%
D10*
%TO.C,SW11*%
X204000000Y-46000000D03*
X210500000Y-46000000D03*
X204000000Y-50500000D03*
X210500000Y-50500000D03*
%TD*%
D13*
%TO.C,D21*%
X178350000Y-66250000D03*
X181650000Y-66250000D03*
%TD*%
D10*
%TO.C,SW33*%
X192000000Y-70000000D03*
X198500000Y-70000000D03*
X192000000Y-74500000D03*
X198500000Y-74500000D03*
%TD*%
D16*
%TO.C,R9*%
X189285000Y-110515000D03*
X190305000Y-110515000D03*
%TD*%
D13*
%TO.C,D49*%
X166350000Y-102250000D03*
X169650000Y-102250000D03*
%TD*%
%TO.C,D39*%
X130350000Y-90250000D03*
X133650000Y-90250000D03*
%TD*%
%TO.C,D2*%
X94350000Y-54250000D03*
X97650000Y-54250000D03*
%TD*%
D10*
%TO.C,SW41*%
X156000000Y-82000000D03*
X162500000Y-82000000D03*
X156000000Y-86500000D03*
X162500000Y-86500000D03*
%TD*%
D13*
%TO.C,D22*%
X190350000Y-66250000D03*
X193650000Y-66250000D03*
%TD*%
%TO.C,D24*%
X82350000Y-78250000D03*
X85650000Y-78250000D03*
%TD*%
%TO.C,D45*%
X202350000Y-90250000D03*
X205650000Y-90250000D03*
%TD*%
%TO.C,D47*%
X94350000Y-102250000D03*
X97650000Y-102250000D03*
%TD*%
D10*
%TO.C,SW40*%
X144000000Y-82000000D03*
X150500000Y-82000000D03*
X144000000Y-86500000D03*
X150500000Y-86500000D03*
%TD*%
D19*
%TO.C,H4*%
X222000000Y-138125000D03*
%TD*%
D13*
%TO.C,D4*%
X118350000Y-54250000D03*
X121650000Y-54250000D03*
%TD*%
D10*
%TO.C,SW42*%
X168000000Y-82000000D03*
X174500000Y-82000000D03*
X168000000Y-86500000D03*
X174500000Y-86500000D03*
%TD*%
%TO.C,SW49*%
X168000000Y-94000000D03*
X174500000Y-94000000D03*
X168000000Y-98500000D03*
X174500000Y-98500000D03*
%TD*%
D13*
%TO.C,D46*%
X82350000Y-102250000D03*
X85650000Y-102250000D03*
%TD*%
D10*
%TO.C,SW32*%
X180000000Y-70000000D03*
X186500000Y-70000000D03*
X180000000Y-74500000D03*
X186500000Y-74500000D03*
%TD*%
%TO.C,SW22*%
X192000000Y-58000000D03*
X198500000Y-58000000D03*
X192000000Y-62500000D03*
X198500000Y-62500000D03*
%TD*%
%TO.C,SW16*%
X120000000Y-58000000D03*
X126500000Y-58000000D03*
X120000000Y-62500000D03*
X126500000Y-62500000D03*
%TD*%
%TO.C,SW27*%
X120000000Y-70000000D03*
X126500000Y-70000000D03*
X120000000Y-74500000D03*
X126500000Y-74500000D03*
%TD*%
%TO.C,SW44*%
X192000000Y-82000000D03*
X198500000Y-82000000D03*
X192000000Y-86500000D03*
X198500000Y-86500000D03*
%TD*%
%TO.C,SW34*%
X204000000Y-70000000D03*
X210500000Y-70000000D03*
X204000000Y-74500000D03*
X210500000Y-74500000D03*
%TD*%
%TO.C,SW9*%
X180000000Y-46000000D03*
X186500000Y-46000000D03*
X180000000Y-50500000D03*
X186500000Y-50500000D03*
%TD*%
D13*
%TO.C,D44*%
X190350000Y-90250000D03*
X193650000Y-90250000D03*
%TD*%
%TO.C,D25*%
X94350000Y-78250000D03*
X97650000Y-78250000D03*
%TD*%
D10*
%TO.C,SW48*%
X132000000Y-94000000D03*
X138500000Y-94000000D03*
X132000000Y-98500000D03*
X138500000Y-98500000D03*
%TD*%
%TO.C,SW50*%
X180000000Y-94000000D03*
X186500000Y-94000000D03*
X180000000Y-98500000D03*
X186500000Y-98500000D03*
%TD*%
D13*
%TO.C,D10*%
X190350000Y-54250000D03*
X193650000Y-54250000D03*
%TD*%
D10*
%TO.C,SW37*%
X108000000Y-82000000D03*
X114500000Y-82000000D03*
X108000000Y-86500000D03*
X114500000Y-86500000D03*
%TD*%
D13*
%TO.C,D8*%
X166350000Y-54250000D03*
X169650000Y-54250000D03*
%TD*%
D10*
%TO.C,SW20*%
X168000000Y-58000000D03*
X174500000Y-58000000D03*
X168000000Y-62500000D03*
X174500000Y-62500000D03*
%TD*%
%TO.C,SW3*%
X108000000Y-46000000D03*
X114500000Y-46000000D03*
X108000000Y-50500000D03*
X114500000Y-50500000D03*
%TD*%
D13*
%TO.C,D41*%
X154350000Y-90250000D03*
X157650000Y-90250000D03*
%TD*%
%TO.C,D52*%
X202350000Y-102250000D03*
X205650000Y-102250000D03*
%TD*%
%TO.C,D42*%
X166350000Y-90250000D03*
X169650000Y-90250000D03*
%TD*%
%TO.C,D13*%
X82350000Y-66250000D03*
X85650000Y-66250000D03*
%TD*%
D10*
%TO.C,SW6*%
X144000000Y-46000000D03*
X150500000Y-46000000D03*
X144000000Y-50500000D03*
X150500000Y-50500000D03*
%TD*%
%TO.C,SW17*%
X132000000Y-58000000D03*
X138500000Y-58000000D03*
X132000000Y-62500000D03*
X138500000Y-62500000D03*
%TD*%
%TO.C,SW12*%
X216000000Y-46000000D03*
X222500000Y-46000000D03*
X216000000Y-50500000D03*
X222500000Y-50500000D03*
%TD*%
D13*
%TO.C,D48*%
X130350000Y-102250000D03*
X133650000Y-102250000D03*
%TD*%
D10*
%TO.C,SW51*%
X192000000Y-94000000D03*
X198500000Y-94000000D03*
X192000000Y-98500000D03*
X198500000Y-98500000D03*
%TD*%
%TO.C,SW15*%
X108000000Y-58000000D03*
X114500000Y-58000000D03*
X108000000Y-62500000D03*
X114500000Y-62500000D03*
%TD*%
D13*
%TO.C,D36*%
X94350000Y-90250000D03*
X97650000Y-90250000D03*
%TD*%
D17*
%TO.C,J1*%
X141675000Y-118165000D03*
D18*
X141675000Y-120705000D03*
X141675000Y-123245000D03*
X141675000Y-125785000D03*
X141675000Y-128325000D03*
X141675000Y-130865000D03*
%TD*%
D10*
%TO.C,SW8*%
X168000000Y-46000000D03*
X174500000Y-46000000D03*
X168000000Y-50500000D03*
X174500000Y-50500000D03*
%TD*%
D14*
%TO.C,C6*%
X121315000Y-111025000D03*
X123215000Y-111025000D03*
%TD*%
D10*
%TO.C,SW14*%
X96000000Y-58000000D03*
X102500000Y-58000000D03*
X96000000Y-62500000D03*
X102500000Y-62500000D03*
%TD*%
D13*
%TO.C,D50*%
X178350000Y-102250000D03*
X181650000Y-102250000D03*
%TD*%
D15*
%TO.C,C2*%
X101775000Y-110505000D03*
X102735000Y-110505000D03*
%TD*%
D13*
%TO.C,D12*%
X214350000Y-54250000D03*
X217650000Y-54250000D03*
%TD*%
D10*
%TO.C,SW47*%
X96000000Y-94000000D03*
X102500000Y-94000000D03*
X96000000Y-98500000D03*
X102500000Y-98500000D03*
%TD*%
%TO.C,SW36*%
X96000000Y-82000000D03*
X102500000Y-82000000D03*
X96000000Y-86500000D03*
X102500000Y-86500000D03*
%TD*%
D13*
%TO.C,D34*%
X202350000Y-78250000D03*
X205650000Y-78250000D03*
%TD*%
%TO.C,D51*%
X190350000Y-102250000D03*
X193650000Y-102250000D03*
%TD*%
%TO.C,D43*%
X178350000Y-90250000D03*
X181650000Y-90250000D03*
%TD*%
D15*
%TO.C,C3*%
X112175000Y-110505000D03*
X113135000Y-110505000D03*
%TD*%
D13*
%TO.C,D28*%
X130350000Y-78250000D03*
X133650000Y-78250000D03*
%TD*%
%TO.C,D32*%
X178350000Y-78250000D03*
X181650000Y-78250000D03*
%TD*%
%TO.C,D30*%
X154350000Y-78250000D03*
X157650000Y-78250000D03*
%TD*%
D10*
%TO.C,SW39*%
X132000000Y-82000000D03*
X138500000Y-82000000D03*
X132000000Y-86500000D03*
X138500000Y-86500000D03*
%TD*%
%TO.C,SW1*%
X84000000Y-46000000D03*
X90500000Y-46000000D03*
X84000000Y-50500000D03*
X90500000Y-50500000D03*
%TD*%
%TO.C,SW52*%
X204000000Y-94000000D03*
X210500000Y-94000000D03*
X204000000Y-98500000D03*
X210500000Y-98500000D03*
%TD*%
D13*
%TO.C,D7*%
X154350000Y-54250000D03*
X157650000Y-54250000D03*
%TD*%
D16*
%TO.C,R8*%
X178885000Y-110515000D03*
X179905000Y-110515000D03*
%TD*%
D19*
%TO.C,H3*%
X78000000Y-138125000D03*
%TD*%
D16*
%TO.C,R6*%
X155355000Y-110515000D03*
X156375000Y-110515000D03*
%TD*%
D10*
%TO.C,SW30*%
X156000000Y-70000000D03*
X162500000Y-70000000D03*
X156000000Y-74500000D03*
X162500000Y-74500000D03*
%TD*%
D16*
%TO.C,R2*%
X131425000Y-110515000D03*
X132445000Y-110515000D03*
%TD*%
D10*
%TO.C,SW2*%
X96000000Y-46000000D03*
X102500000Y-46000000D03*
X96000000Y-50500000D03*
X102500000Y-50500000D03*
%TD*%
D13*
%TO.C,D20*%
X166350000Y-66250000D03*
X169650000Y-66250000D03*
%TD*%
D10*
%TO.C,SW29*%
X144000000Y-70000000D03*
X150500000Y-70000000D03*
X144000000Y-74500000D03*
X150500000Y-74500000D03*
%TD*%
D13*
%TO.C,D29*%
X142350000Y-78250000D03*
X145650000Y-78250000D03*
%TD*%
%TO.C,D3*%
X106350000Y-54250000D03*
X109650000Y-54250000D03*
%TD*%
D20*
%TO.C,U1*%
X85032500Y-112395000D03*
X85032500Y-113195000D03*
X85032500Y-113995000D03*
X85032500Y-114795000D03*
X85032500Y-115595000D03*
X85032500Y-116395000D03*
X85032500Y-117195000D03*
X85032500Y-117995000D03*
D21*
X86395000Y-119357500D03*
X87195000Y-119357500D03*
X87995000Y-119357500D03*
X88795000Y-119357500D03*
X89595000Y-119357500D03*
X90395000Y-119357500D03*
X91195000Y-119357500D03*
X91995000Y-119357500D03*
D20*
X93357500Y-117995000D03*
X93357500Y-117195000D03*
X93357500Y-116395000D03*
X93357500Y-115595000D03*
X93357500Y-114795000D03*
X93357500Y-113995000D03*
X93357500Y-113195000D03*
X93357500Y-112395000D03*
D21*
X91995000Y-111032500D03*
X91195000Y-111032500D03*
X90395000Y-111032500D03*
X89595000Y-111032500D03*
X88795000Y-111032500D03*
X87995000Y-111032500D03*
X87195000Y-111032500D03*
X86395000Y-111032500D03*
%TD*%
D10*
%TO.C,SW24*%
X84000000Y-70000000D03*
X90500000Y-70000000D03*
X84000000Y-74500000D03*
X90500000Y-74500000D03*
%TD*%
D15*
%TO.C,C1*%
X97365000Y-110505000D03*
X98325000Y-110505000D03*
%TD*%
D10*
%TO.C,SW10*%
X192000000Y-46000000D03*
X198500000Y-46000000D03*
X192000000Y-50500000D03*
X198500000Y-50500000D03*
%TD*%
%TO.C,SW19*%
X156000000Y-58000000D03*
X162500000Y-58000000D03*
X156000000Y-62500000D03*
X162500000Y-62500000D03*
%TD*%
D16*
%TO.C,R3*%
X135875000Y-110515000D03*
X136895000Y-110515000D03*
%TD*%
D10*
%TO.C,SW23*%
X204000000Y-58000000D03*
X210500000Y-58000000D03*
X204000000Y-62500000D03*
X210500000Y-62500000D03*
%TD*%
D13*
%TO.C,D9*%
X178350000Y-54250000D03*
X181650000Y-54250000D03*
%TD*%
%TO.C,D33*%
X190350000Y-78250000D03*
X193650000Y-78250000D03*
%TD*%
D16*
%TO.C,R11*%
X213490000Y-119000000D03*
X214510000Y-119000000D03*
%TD*%
D19*
%TO.C,H1*%
X78000000Y-40000000D03*
%TD*%
D13*
%TO.C,D38*%
X118350000Y-90250000D03*
X121650000Y-90250000D03*
%TD*%
D10*
%TO.C,SW25*%
X96000000Y-70000000D03*
X102500000Y-70000000D03*
X96000000Y-74500000D03*
X102500000Y-74500000D03*
%TD*%
%TO.C,SW21*%
X180000000Y-58000000D03*
X186500000Y-58000000D03*
X180000000Y-62500000D03*
X186500000Y-62500000D03*
%TD*%
%TO.C,SW35*%
X84000000Y-82000000D03*
X90500000Y-82000000D03*
X84000000Y-86500000D03*
X90500000Y-86500000D03*
%TD*%
%TO.C,SW18*%
X144000000Y-58000000D03*
X150500000Y-58000000D03*
X144000000Y-62500000D03*
X150500000Y-62500000D03*
%TD*%
D16*
%TO.C,R5*%
X150905000Y-110515000D03*
X151925000Y-110515000D03*
%TD*%
D10*
%TO.C,SW53*%
X216000000Y-94000000D03*
X222500000Y-94000000D03*
X216000000Y-98500000D03*
X222500000Y-98500000D03*
%TD*%
%TO.C,SW13*%
X84000000Y-58000000D03*
X90500000Y-58000000D03*
X84000000Y-62500000D03*
X90500000Y-62500000D03*
%TD*%
%TO.C,SW28*%
X132000000Y-70000000D03*
X138500000Y-70000000D03*
X132000000Y-74500000D03*
X138500000Y-74500000D03*
%TD*%
D16*
%TO.C,R1*%
X126975000Y-110515000D03*
X127995000Y-110515000D03*
%TD*%
D13*
%TO.C,D27*%
X118350000Y-78250000D03*
X121650000Y-78250000D03*
%TD*%
%TO.C,D23*%
X202350000Y-66250000D03*
X205650000Y-66250000D03*
%TD*%
D16*
%TO.C,R4*%
X146455000Y-110515000D03*
X147475000Y-110515000D03*
%TD*%
D13*
%TO.C,D16*%
X118350000Y-66250000D03*
X121650000Y-66250000D03*
%TD*%
%TO.C,D53*%
X214350000Y-102250000D03*
X217650000Y-102250000D03*
%TD*%
D10*
%TO.C,SW26*%
X108000000Y-70000000D03*
X114500000Y-70000000D03*
X108000000Y-74500000D03*
X114500000Y-74500000D03*
%TD*%
%TO.C,SW5*%
X132000000Y-46000000D03*
X138500000Y-46000000D03*
X132000000Y-50500000D03*
X138500000Y-50500000D03*
%TD*%
D22*
%TO.C,J3*%
X219750000Y-117645000D03*
X219750000Y-111865000D03*
D23*
X218305000Y-118005000D03*
X218305000Y-117205000D03*
D24*
X218305000Y-116005000D03*
X218305000Y-115005000D03*
X218305000Y-114505000D03*
X218305000Y-113505000D03*
D23*
X218305000Y-112305000D03*
X218305000Y-111505000D03*
X218305000Y-111505000D03*
X218305000Y-112305000D03*
D24*
X218305000Y-113005000D03*
X218305000Y-114005000D03*
X218305000Y-115505000D03*
X218305000Y-116505000D03*
D23*
X218305000Y-117205000D03*
X218305000Y-118005000D03*
D25*
X219220000Y-119075000D03*
D26*
X223400000Y-119075000D03*
D25*
X219220000Y-110435000D03*
D26*
X223400000Y-110435000D03*
%TD*%
D10*
%TO.C,SW7*%
X156000000Y-46000000D03*
X162500000Y-46000000D03*
X156000000Y-50500000D03*
X162500000Y-50500000D03*
%TD*%
D19*
%TO.C,H2*%
X222000000Y-40000000D03*
%TD*%
D13*
%TO.C,D14*%
X94350000Y-66250000D03*
X97650000Y-66250000D03*
%TD*%
M02*
