%TF.GenerationSoftware,KiCad,Pcbnew,10.0.3*%
%TF.CreationDate,2026-06-15T02:07:15-07:00*%
%TF.ProjectId,workboy,776f726b-626f-4792-9e6b-696361645f70,rev?*%
%TF.SameCoordinates,Original*%
%TF.FileFunction,Copper,L2,Bot*%
%TF.FilePolarity,Positive*%
%FSLAX46Y46*%
G04 Gerber Fmt 4.6, Leading zero omitted, Abs format (unit mm)*
G04 Created by KiCad (PCBNEW 10.0.3) date 2026-06-15 02:07:15*
%MOMM*%
%LPD*%
G01*
G04 APERTURE LIST*
%TA.AperFunction,ComponentPad*%
%ADD10C,2.000000*%
%TD*%
%TA.AperFunction,ComponentPad*%
%ADD11O,1.000000X2.100000*%
%TD*%
%TA.AperFunction,ComponentPad*%
%ADD12O,1.000000X1.600000*%
%TD*%
%TA.AperFunction,ComponentPad*%
%ADD13R,1.700000X1.700000*%
%TD*%
%TA.AperFunction,ComponentPad*%
%ADD14C,1.700000*%
%TD*%
%TA.AperFunction,ViaPad*%
%ADD15C,0.600000*%
%TD*%
%TA.AperFunction,Conductor*%
%ADD16C,0.250000*%
%TD*%
G04 APERTURE END LIST*
D10*
%TO.P,SW11,1*%
%TO.N,ROW1*%
X204000000Y-46000000D03*
X210500000Y-46000000D03*
%TO.P,SW11,2*%
%TO.N,KEY11*%
X204000000Y-50500000D03*
X210500000Y-50500000D03*
%TD*%
%TO.P,SW8,1*%
%TO.N,ROW1*%
X168000000Y-46000000D03*
X174500000Y-46000000D03*
%TO.P,SW8,2*%
%TO.N,KEY8*%
X168000000Y-50500000D03*
X174500000Y-50500000D03*
%TD*%
%TO.P,SW13,1*%
%TO.N,ROW1*%
X84000000Y-58000000D03*
X90500000Y-58000000D03*
%TO.P,SW13,2*%
%TO.N,KEY13*%
X84000000Y-62500000D03*
X90500000Y-62500000D03*
%TD*%
%TO.P,SW24,1*%
%TO.N,ROW3*%
X84000000Y-70000000D03*
X90500000Y-70000000D03*
%TO.P,SW24,2*%
%TO.N,KEY24*%
X84000000Y-74500000D03*
X90500000Y-74500000D03*
%TD*%
%TO.P,SW47,1*%
%TO.N,ROW6*%
X96000000Y-94000000D03*
X102500000Y-94000000D03*
%TO.P,SW47,2*%
%TO.N,KEY47*%
X96000000Y-98500000D03*
X102500000Y-98500000D03*
%TD*%
%TO.P,SW20,1*%
%TO.N,ROW2*%
X168000000Y-58000000D03*
X174500000Y-58000000D03*
%TO.P,SW20,2*%
%TO.N,KEY20*%
X168000000Y-62500000D03*
X174500000Y-62500000D03*
%TD*%
%TO.P,SW28,1*%
%TO.N,ROW3*%
X132000000Y-70000000D03*
X138500000Y-70000000D03*
%TO.P,SW28,2*%
%TO.N,KEY28*%
X132000000Y-74500000D03*
X138500000Y-74500000D03*
%TD*%
%TO.P,SW5,1*%
%TO.N,ROW0*%
X132000000Y-46000000D03*
X138500000Y-46000000D03*
%TO.P,SW5,2*%
%TO.N,KEY5*%
X132000000Y-50500000D03*
X138500000Y-50500000D03*
%TD*%
D11*
%TO.P,J3,SH*%
%TO.N,GND*%
X200265000Y-111625000D03*
D12*
X200265000Y-115805000D03*
D11*
X208905000Y-111625000D03*
D12*
X208905000Y-115805000D03*
%TD*%
D10*
%TO.P,SW14,1*%
%TO.N,ROW1*%
X96000000Y-58000000D03*
X102500000Y-58000000D03*
%TO.P,SW14,2*%
%TO.N,KEY14*%
X96000000Y-62500000D03*
X102500000Y-62500000D03*
%TD*%
%TO.P,SW39,1*%
%TO.N,ROW5*%
X132000000Y-82000000D03*
X138500000Y-82000000D03*
%TO.P,SW39,2*%
%TO.N,KEY39*%
X132000000Y-86500000D03*
X138500000Y-86500000D03*
%TD*%
%TO.P,SW45,1*%
%TO.N,ROW6*%
X204000000Y-82000000D03*
X210500000Y-82000000D03*
%TO.P,SW45,2*%
%TO.N,KEY45*%
X204000000Y-86500000D03*
X210500000Y-86500000D03*
%TD*%
%TO.P,SW2,1*%
%TO.N,ROW0*%
X96000000Y-46000000D03*
X102500000Y-46000000D03*
%TO.P,SW2,2*%
%TO.N,KEY2*%
X96000000Y-50500000D03*
X102500000Y-50500000D03*
%TD*%
%TO.P,SW35,1*%
%TO.N,ROW4*%
X84000000Y-82000000D03*
X90500000Y-82000000D03*
%TO.P,SW35,2*%
%TO.N,KEY35*%
X84000000Y-86500000D03*
X90500000Y-86500000D03*
%TD*%
%TO.P,SW36,1*%
%TO.N,ROW5*%
X96000000Y-82000000D03*
X102500000Y-82000000D03*
%TO.P,SW36,2*%
%TO.N,KEY36*%
X96000000Y-86500000D03*
X102500000Y-86500000D03*
%TD*%
%TO.P,SW51,1*%
%TO.N,ROW7*%
X192000000Y-94000000D03*
X198500000Y-94000000D03*
%TO.P,SW51,2*%
%TO.N,KEY51*%
X192000000Y-98500000D03*
X198500000Y-98500000D03*
%TD*%
%TO.P,SW7,1*%
%TO.N,ROW0*%
X156000000Y-46000000D03*
X162500000Y-46000000D03*
%TO.P,SW7,2*%
%TO.N,KEY7*%
X156000000Y-50500000D03*
X162500000Y-50500000D03*
%TD*%
%TO.P,SW49,1*%
%TO.N,ROW6*%
X168000000Y-94000000D03*
X174500000Y-94000000D03*
%TO.P,SW49,2*%
%TO.N,KEY49*%
X168000000Y-98500000D03*
X174500000Y-98500000D03*
%TD*%
%TO.P,SW22,1*%
%TO.N,ROW3*%
X192000000Y-58000000D03*
X198500000Y-58000000D03*
%TO.P,SW22,2*%
%TO.N,KEY22*%
X192000000Y-62500000D03*
X198500000Y-62500000D03*
%TD*%
%TO.P,SW32,1*%
%TO.N,ROW4*%
X180000000Y-70000000D03*
X186500000Y-70000000D03*
%TO.P,SW32,2*%
%TO.N,KEY32*%
X180000000Y-74500000D03*
X186500000Y-74500000D03*
%TD*%
%TO.P,SW29,1*%
%TO.N,ROW4*%
X144000000Y-70000000D03*
X150500000Y-70000000D03*
%TO.P,SW29,2*%
%TO.N,KEY29*%
X144000000Y-74500000D03*
X150500000Y-74500000D03*
%TD*%
%TO.P,SW38,1*%
%TO.N,ROW5*%
X120000000Y-82000000D03*
X126500000Y-82000000D03*
%TO.P,SW38,2*%
%TO.N,KEY38*%
X120000000Y-86500000D03*
X126500000Y-86500000D03*
%TD*%
%TO.P,SW21,1*%
%TO.N,ROW2*%
X180000000Y-58000000D03*
X186500000Y-58000000D03*
%TO.P,SW21,2*%
%TO.N,KEY21*%
X180000000Y-62500000D03*
X186500000Y-62500000D03*
%TD*%
%TO.P,SW46,1*%
%TO.N,ROW6*%
X84000000Y-94000000D03*
X90500000Y-94000000D03*
%TO.P,SW46,2*%
%TO.N,KEY46*%
X84000000Y-98500000D03*
X90500000Y-98500000D03*
%TD*%
%TO.P,SW1,1*%
%TO.N,ROW0*%
X84000000Y-46000000D03*
X90500000Y-46000000D03*
%TO.P,SW1,2*%
%TO.N,KEY1*%
X84000000Y-50500000D03*
X90500000Y-50500000D03*
%TD*%
%TO.P,SW25,1*%
%TO.N,ROW3*%
X96000000Y-70000000D03*
X102500000Y-70000000D03*
%TO.P,SW25,2*%
%TO.N,KEY25*%
X96000000Y-74500000D03*
X102500000Y-74500000D03*
%TD*%
%TO.P,SW18,1*%
%TO.N,ROW2*%
X144000000Y-58000000D03*
X150500000Y-58000000D03*
%TO.P,SW18,2*%
%TO.N,KEY18*%
X144000000Y-62500000D03*
X150500000Y-62500000D03*
%TD*%
%TO.P,SW15,1*%
%TO.N,ROW2*%
X108000000Y-58000000D03*
X114500000Y-58000000D03*
%TO.P,SW15,2*%
%TO.N,KEY15*%
X108000000Y-62500000D03*
X114500000Y-62500000D03*
%TD*%
%TO.P,SW12,1*%
%TO.N,ROW1*%
X216000000Y-46000000D03*
X222500000Y-46000000D03*
%TO.P,SW12,2*%
%TO.N,KEY12*%
X216000000Y-50500000D03*
X222500000Y-50500000D03*
%TD*%
%TO.P,SW53,1*%
%TO.N,ROW7*%
X216000000Y-94000000D03*
X222500000Y-94000000D03*
%TO.P,SW53,2*%
%TO.N,KEY53*%
X216000000Y-98500000D03*
X222500000Y-98500000D03*
%TD*%
D13*
%TO.P,J2,1*%
%TO.N,MCU_MISO*%
X162430000Y-114355000D03*
D14*
%TO.P,J2,2*%
%TO.N,+5V*%
X164970000Y-114355000D03*
%TO.P,J2,3*%
%TO.N,MCU_SCK*%
X162430000Y-116895000D03*
%TO.P,J2,4*%
%TO.N,MCU_MOSI*%
X164970000Y-116895000D03*
%TO.P,J2,5*%
%TO.N,nRESET*%
X162430000Y-119435000D03*
%TO.P,J2,6*%
%TO.N,GND*%
X164970000Y-119435000D03*
%TD*%
D10*
%TO.P,SW37,1*%
%TO.N,ROW5*%
X108000000Y-82000000D03*
X114500000Y-82000000D03*
%TO.P,SW37,2*%
%TO.N,KEY37*%
X108000000Y-86500000D03*
X114500000Y-86500000D03*
%TD*%
%TO.P,SW41,1*%
%TO.N,ROW5*%
X156000000Y-82000000D03*
X162500000Y-82000000D03*
%TO.P,SW41,2*%
%TO.N,KEY41*%
X156000000Y-86500000D03*
X162500000Y-86500000D03*
%TD*%
%TO.P,SW4,1*%
%TO.N,ROW0*%
X120000000Y-46000000D03*
X126500000Y-46000000D03*
%TO.P,SW4,2*%
%TO.N,KEY4*%
X120000000Y-50500000D03*
X126500000Y-50500000D03*
%TD*%
%TO.P,SW42,1*%
%TO.N,ROW5*%
X168000000Y-82000000D03*
X174500000Y-82000000D03*
%TO.P,SW42,2*%
%TO.N,KEY42*%
X168000000Y-86500000D03*
X174500000Y-86500000D03*
%TD*%
%TO.P,SW30,1*%
%TO.N,ROW4*%
X156000000Y-70000000D03*
X162500000Y-70000000D03*
%TO.P,SW30,2*%
%TO.N,KEY30*%
X156000000Y-74500000D03*
X162500000Y-74500000D03*
%TD*%
%TO.P,SW17,1*%
%TO.N,ROW2*%
X132000000Y-58000000D03*
X138500000Y-58000000D03*
%TO.P,SW17,2*%
%TO.N,KEY17*%
X132000000Y-62500000D03*
X138500000Y-62500000D03*
%TD*%
%TO.P,SW6,1*%
%TO.N,ROW0*%
X144000000Y-46000000D03*
X150500000Y-46000000D03*
%TO.P,SW6,2*%
%TO.N,KEY6*%
X144000000Y-50500000D03*
X150500000Y-50500000D03*
%TD*%
%TO.P,SW31,1*%
%TO.N,ROW4*%
X168000000Y-70000000D03*
X174500000Y-70000000D03*
%TO.P,SW31,2*%
%TO.N,KEY31*%
X168000000Y-74500000D03*
X174500000Y-74500000D03*
%TD*%
%TO.P,SW33,1*%
%TO.N,ROW4*%
X192000000Y-70000000D03*
X198500000Y-70000000D03*
%TO.P,SW33,2*%
%TO.N,KEY33*%
X192000000Y-74500000D03*
X198500000Y-74500000D03*
%TD*%
%TO.P,SW23,1*%
%TO.N,ROW3*%
X204000000Y-58000000D03*
X210500000Y-58000000D03*
%TO.P,SW23,2*%
%TO.N,KEY23*%
X204000000Y-62500000D03*
X210500000Y-62500000D03*
%TD*%
%TO.P,SW16,1*%
%TO.N,ROW2*%
X120000000Y-58000000D03*
X126500000Y-58000000D03*
%TO.P,SW16,2*%
%TO.N,KEY16*%
X120000000Y-62500000D03*
X126500000Y-62500000D03*
%TD*%
%TO.P,SW9,1*%
%TO.N,ROW1*%
X180000000Y-46000000D03*
X186500000Y-46000000D03*
%TO.P,SW9,2*%
%TO.N,KEY9*%
X180000000Y-50500000D03*
X186500000Y-50500000D03*
%TD*%
%TO.P,SW27,1*%
%TO.N,ROW3*%
X120000000Y-70000000D03*
X126500000Y-70000000D03*
%TO.P,SW27,2*%
%TO.N,KEY27*%
X120000000Y-74500000D03*
X126500000Y-74500000D03*
%TD*%
%TO.P,SW52,1*%
%TO.N,ROW7*%
X204000000Y-94000000D03*
X210500000Y-94000000D03*
%TO.P,SW52,2*%
%TO.N,KEY52*%
X204000000Y-98500000D03*
X210500000Y-98500000D03*
%TD*%
%TO.P,SW43,1*%
%TO.N,ROW6*%
X180000000Y-82000000D03*
X186500000Y-82000000D03*
%TO.P,SW43,2*%
%TO.N,KEY43*%
X180000000Y-86500000D03*
X186500000Y-86500000D03*
%TD*%
%TO.P,SW26,1*%
%TO.N,ROW3*%
X108000000Y-70000000D03*
X114500000Y-70000000D03*
%TO.P,SW26,2*%
%TO.N,KEY26*%
X108000000Y-74500000D03*
X114500000Y-74500000D03*
%TD*%
%TO.P,SW19,1*%
%TO.N,ROW2*%
X156000000Y-58000000D03*
X162500000Y-58000000D03*
%TO.P,SW19,2*%
%TO.N,KEY19*%
X156000000Y-62500000D03*
X162500000Y-62500000D03*
%TD*%
D13*
%TO.P,J1,1*%
%TO.N,LINK_VCC*%
X141675000Y-118165000D03*
D14*
%TO.P,J1,2*%
%TO.N,LINK_SO*%
X141675000Y-120705000D03*
%TO.P,J1,3*%
%TO.N,LINK_SI*%
X141675000Y-123245000D03*
%TO.P,J1,4*%
%TO.N,LINK_SD*%
X141675000Y-125785000D03*
%TO.P,J1,5*%
%TO.N,LINK_SC*%
X141675000Y-128325000D03*
%TO.P,J1,6*%
%TO.N,GND*%
X141675000Y-130865000D03*
%TD*%
D10*
%TO.P,SW10,1*%
%TO.N,ROW1*%
X192000000Y-46000000D03*
X198500000Y-46000000D03*
%TO.P,SW10,2*%
%TO.N,KEY10*%
X192000000Y-50500000D03*
X198500000Y-50500000D03*
%TD*%
%TO.P,SW34,1*%
%TO.N,ROW4*%
X204000000Y-70000000D03*
X210500000Y-70000000D03*
%TO.P,SW34,2*%
%TO.N,KEY34*%
X204000000Y-74500000D03*
X210500000Y-74500000D03*
%TD*%
%TO.P,SW3,1*%
%TO.N,ROW0*%
X108000000Y-46000000D03*
X114500000Y-46000000D03*
%TO.P,SW3,2*%
%TO.N,KEY3*%
X108000000Y-50500000D03*
X114500000Y-50500000D03*
%TD*%
%TO.P,SW50,1*%
%TO.N,ROW7*%
X180000000Y-94000000D03*
X186500000Y-94000000D03*
%TO.P,SW50,2*%
%TO.N,KEY50*%
X180000000Y-98500000D03*
X186500000Y-98500000D03*
%TD*%
%TO.P,SW44,1*%
%TO.N,ROW6*%
X192000000Y-82000000D03*
X198500000Y-82000000D03*
%TO.P,SW44,2*%
%TO.N,KEY44*%
X192000000Y-86500000D03*
X198500000Y-86500000D03*
%TD*%
%TO.P,SW40,1*%
%TO.N,ROW5*%
X144000000Y-82000000D03*
X150500000Y-82000000D03*
%TO.P,SW40,2*%
%TO.N,KEY40*%
X144000000Y-86500000D03*
X150500000Y-86500000D03*
%TD*%
%TO.P,SW48,1*%
%TO.N,ROW6*%
X132000000Y-94000000D03*
X138500000Y-94000000D03*
%TO.P,SW48,2*%
%TO.N,KEY48*%
X132000000Y-98500000D03*
X138500000Y-98500000D03*
%TD*%
D15*
%TO.N,COL5*%
X155911600Y-88981900D03*
X89390800Y-80820400D03*
X145428600Y-55318900D03*
X89546000Y-107446300D03*
X147017800Y-68171500D03*
%TO.N,ROW1*%
X87092700Y-108259700D03*
%TO.N,COL6*%
X99632900Y-69131200D03*
X169650000Y-89159200D03*
X98630100Y-83453600D03*
X161193500Y-68764300D03*
X89978100Y-117476100D03*
X158465900Y-55065900D03*
%TO.N,GND*%
X138361200Y-110470300D03*
%TO.N,COL3*%
X197014300Y-76068700D03*
X96721900Y-90783000D03*
X94449600Y-97492100D03*
X216113500Y-102490200D03*
X196880200Y-57224200D03*
X97167200Y-79319500D03*
%TO.N,COL2*%
X120716200Y-90422800D03*
X135336700Y-66225500D03*
X169530100Y-85335800D03*
X167912000Y-78994700D03*
%TO.N,ROW3*%
X85869600Y-109935700D03*
%TO.N,ROW6*%
X105556000Y-94048600D03*
X87610900Y-118136600D03*
%TO.N,ROW2*%
X88717300Y-104416800D03*
%TO.N,ROW0*%
X87995000Y-109810300D03*
%TO.N,USB_CC1*%
X204585000Y-111949800D03*
X210293700Y-110439600D03*
%TO.N,COL1*%
X108457000Y-90036200D03*
X195675400Y-68224000D03*
X117236100Y-66465100D03*
X96344700Y-111757700D03*
X195180700Y-90538700D03*
%TO.N,ROW5*%
X88795500Y-117399100D03*
%TO.N,COL4*%
X153354400Y-84590900D03*
X90395000Y-109825000D03*
X93073400Y-105306200D03*
X153565000Y-65373500D03*
X145945300Y-56095800D03*
X96410700Y-79933300D03*
%TO.N,ROW4*%
X152964700Y-70183300D03*
%TO.N,ROW7*%
X123142600Y-121030900D03*
%TO.N,+5V*%
X161514500Y-111623100D03*
X120158200Y-109408900D03*
X120169000Y-111025000D03*
%TO.N,COL0*%
X99757400Y-90036200D03*
X181023500Y-67606200D03*
X181650000Y-89177300D03*
X171243100Y-55096700D03*
X94551400Y-112407400D03*
X105948800Y-67569500D03*
%TO.N,NET_PB6*%
X101686700Y-107384900D03*
X91308400Y-116577800D03*
%TO.N,MCU_MISO*%
X153337200Y-111213200D03*
%TO.N,NET_PB7*%
X87316500Y-116956200D03*
X93275500Y-106803600D03*
%TO.N,nSS*%
X92126900Y-117965700D03*
X96283000Y-117595000D03*
%TD*%
%TO.N,COL5*%
D16*
X89546000Y-107446300D02*
X89546000Y-99351500D01*
X145428600Y-55318900D02*
X145343300Y-55404200D01*
X151776700Y-73723400D02*
X151776700Y-84847000D01*
X151776700Y-84847000D02*
X155911600Y-88981900D01*
X145343300Y-55404200D02*
X145343300Y-66497000D01*
X147017800Y-68964500D02*
X151776700Y-73723400D01*
X147017800Y-68171500D02*
X147017800Y-68964500D01*
X145343300Y-66497000D02*
X147017800Y-68171500D01*
X89223300Y-80987900D02*
X89390800Y-80820400D01*
X89223300Y-99028800D02*
X89223300Y-80987900D01*
X89546000Y-99351500D02*
X89223300Y-99028800D01*
%TO.N,ROW1*%
X87092700Y-108259700D02*
X87092700Y-61092700D01*
X112250000Y-48250000D02*
X165750000Y-48250000D01*
X165750000Y-48250000D02*
X168000000Y-46000000D01*
X102500000Y-58000000D02*
X112250000Y-48250000D01*
X87092700Y-61092700D02*
X84000000Y-58000000D01*
%TO.N,COL6*%
X89978100Y-117476100D02*
X89978100Y-116122700D01*
X89978100Y-116122700D02*
X98630100Y-107470700D01*
X161193500Y-68764300D02*
X158465900Y-66036700D01*
X158465900Y-66036700D02*
X158465900Y-55065900D01*
X170116100Y-79494600D02*
X170116100Y-88693100D01*
X99632900Y-69131200D02*
X98630100Y-70134000D01*
X161193500Y-68764300D02*
X161193500Y-70572000D01*
X170116100Y-88693100D02*
X169650000Y-89159200D01*
X98630100Y-70134000D02*
X98630100Y-83453600D01*
X98630100Y-107470700D02*
X98630100Y-83453600D01*
X161193500Y-70572000D02*
X170116100Y-79494600D01*
%TO.N,GND*%
X208905000Y-115805000D02*
X208905000Y-114728300D01*
X208905000Y-114728300D02*
X208905000Y-111625000D01*
X138361200Y-127551200D02*
X138361200Y-110470300D01*
X200265000Y-114728300D02*
X200265000Y-111625000D01*
X200265000Y-115805000D02*
X200265000Y-114728300D01*
X200265000Y-114728300D02*
X208905000Y-114728300D01*
X141675000Y-130865000D02*
X138361200Y-127551200D01*
%TO.N,COL3*%
X94449600Y-93055300D02*
X94449600Y-97492100D01*
X196880200Y-57224200D02*
X196880200Y-75934600D01*
X196880200Y-75934600D02*
X197014300Y-76068700D01*
X97276700Y-90228200D02*
X97276700Y-79429000D01*
X211776700Y-98153400D02*
X216113500Y-102490200D01*
X96721900Y-90783000D02*
X94449600Y-93055300D01*
X211776700Y-91803700D02*
X211776700Y-98153400D01*
X197014300Y-76068700D02*
X197014300Y-77041300D01*
X96721900Y-90783000D02*
X97276700Y-90228200D01*
X197014300Y-77041300D02*
X211776700Y-91803700D01*
X97276700Y-79429000D02*
X97167200Y-79319500D01*
%TO.N,COL2*%
X165550500Y-81356200D02*
X167912000Y-78994700D01*
X157305100Y-89601600D02*
X165550500Y-81356200D01*
X135336700Y-80705500D02*
X144232800Y-89601600D01*
X130433500Y-80705500D02*
X135336700Y-80705500D01*
X120716200Y-90422800D02*
X130433500Y-80705500D01*
X135336700Y-80705500D02*
X135336700Y-66225500D01*
X144232800Y-89601600D02*
X157305100Y-89601600D01*
X165550500Y-81356200D02*
X169530100Y-85335800D01*
%TO.N,ROW3*%
X85869600Y-71869600D02*
X85869600Y-109935700D01*
X90500000Y-70000000D02*
X96000000Y-70000000D01*
X84000000Y-70000000D02*
X85869600Y-71869600D01*
%TO.N,ROW6*%
X87610900Y-118136600D02*
X85276700Y-115802400D01*
X174500000Y-94000000D02*
X174500000Y-88857000D01*
X138500000Y-94000000D02*
X168000000Y-94000000D01*
X174500000Y-88857000D02*
X180000000Y-83357000D01*
X85276700Y-115802400D02*
X85276700Y-95276700D01*
X102500000Y-94000000D02*
X105507400Y-94000000D01*
X85276700Y-95276700D02*
X84000000Y-94000000D01*
X105507400Y-94000000D02*
X105556000Y-94048600D01*
X180000000Y-83357000D02*
X180000000Y-82000000D01*
%TO.N,ROW2*%
X132000000Y-58000000D02*
X138500000Y-58000000D01*
X88717300Y-104416800D02*
X88717300Y-79219500D01*
X108000000Y-59936800D02*
X108000000Y-58000000D01*
X88717300Y-79219500D02*
X108000000Y-59936800D01*
%TO.N,ROW0*%
X87995000Y-48472000D02*
X87995000Y-109810300D01*
X87995000Y-48472000D02*
X86472000Y-48472000D01*
X90500000Y-46000000D02*
X88028000Y-48472000D01*
X88028000Y-48472000D02*
X87995000Y-48472000D01*
X86472000Y-48472000D02*
X84000000Y-46000000D01*
%TO.N,USB_CC1*%
X206248700Y-110286100D02*
X210140200Y-110286100D01*
X210140200Y-110286100D02*
X210293700Y-110439600D01*
X204585000Y-111949800D02*
X206248700Y-110286100D01*
%TO.N,COL1*%
X108457000Y-99645400D02*
X108457000Y-90036200D01*
X117236100Y-81257100D02*
X117236100Y-66465100D01*
X195180700Y-68718700D02*
X195675400Y-68224000D01*
X195180700Y-90538700D02*
X195180700Y-68718700D01*
X108457000Y-90036200D02*
X117236100Y-81257100D01*
X96344700Y-111757700D02*
X108457000Y-99645400D01*
%TO.N,ROW5*%
X88795500Y-116647600D02*
X88795500Y-117399100D01*
X96000000Y-82000000D02*
X93866900Y-84133100D01*
X93866900Y-84133100D02*
X93866900Y-111576200D01*
X93866900Y-111576200D02*
X88795500Y-116647600D01*
X120000000Y-82000000D02*
X126500000Y-82000000D01*
%TO.N,COL4*%
X153354400Y-84590900D02*
X153565000Y-84380300D01*
X96170000Y-79933400D02*
X96410700Y-79933400D01*
X153565000Y-63715500D02*
X145945300Y-56095800D01*
X153565000Y-84380300D02*
X153565000Y-65373500D01*
X93073400Y-105306200D02*
X93073400Y-83030000D01*
X93073400Y-105306200D02*
X90395000Y-107984600D01*
X96410700Y-79933400D02*
X96410700Y-79933300D01*
X90395000Y-107984600D02*
X90395000Y-109825000D01*
X153565000Y-65373500D02*
X153565000Y-63715500D01*
X93073400Y-83030000D02*
X96170000Y-79933400D01*
%TO.N,ROW4*%
X152781400Y-70000000D02*
X152964700Y-70183300D01*
X150500000Y-70000000D02*
X152781400Y-70000000D01*
X174500000Y-70000000D02*
X168000000Y-70000000D01*
%TO.N,ROW7*%
X146950200Y-97223300D02*
X176776700Y-97223300D01*
X186500000Y-94000000D02*
X180000000Y-94000000D01*
X123142600Y-121030900D02*
X146950200Y-97223300D01*
X176776700Y-97223300D02*
X180000000Y-94000000D01*
X204000000Y-94000000D02*
X210500000Y-94000000D01*
%TO.N,+5V*%
X161514500Y-111623100D02*
X162238100Y-111623100D01*
X120158200Y-111014200D02*
X120169000Y-111025000D01*
X162238100Y-111623100D02*
X164970000Y-114355000D01*
X120158200Y-109408900D02*
X120158200Y-111014200D01*
%TO.N,COL0*%
X94551400Y-112407400D02*
X99757400Y-107201400D01*
X181023500Y-66673500D02*
X181023500Y-67606200D01*
X181650000Y-68232700D02*
X181650000Y-89177300D01*
X105948800Y-74524200D02*
X105948800Y-67569500D01*
X171243100Y-55096700D02*
X171243100Y-56893100D01*
X99757400Y-80715600D02*
X105948800Y-74524200D01*
X99757400Y-107201400D02*
X99757400Y-90036200D01*
X181023500Y-67606200D02*
X181650000Y-68232700D01*
X171243100Y-56893100D02*
X181023500Y-66673500D01*
X99757400Y-90036200D02*
X99757400Y-80715600D01*
%TO.N,NET_PB6*%
X92493800Y-116577800D02*
X91308400Y-116577800D01*
X101686700Y-107384900D02*
X92493800Y-116577800D01*
%TO.N,MCU_MISO*%
X161303300Y-114355000D02*
X158161500Y-111213200D01*
X162430000Y-114355000D02*
X161303300Y-114355000D01*
X158161500Y-111213200D02*
X153337200Y-111213200D01*
%TO.N,NET_PB7*%
X93275500Y-106803600D02*
X93275500Y-110997200D01*
X93275500Y-110997200D02*
X87316500Y-116956200D01*
%TO.N,nSS*%
X95912300Y-117965700D02*
X96283000Y-117595000D01*
X92126900Y-117965700D02*
X95912300Y-117965700D01*
%TD*%
M02*
