%TF.GenerationSoftware,KiCad,Pcbnew,10.0.5*%
%TF.CreationDate,2026-07-28T00:34:57-07:00*%
%TF.ProjectId,workboy,776f726b-626f-4792-9e6b-696361645f70,rev?*%
%TF.SameCoordinates,Original*%
%TF.FileFunction,Soldermask,Bot*%
%TF.FilePolarity,Negative*%
%FSLAX46Y46*%
G04 Gerber Fmt 4.6, Leading zero omitted, Abs format (unit mm)*
G04 Created by KiCad (PCBNEW 10.0.5) date 2026-07-28 00:34:57*
%MOMM*%
%LPD*%
G01*
G04 APERTURE LIST*
%ADD10C,2.000000*%
%ADD11C,2.700000*%
%ADD12C,0.650000*%
%ADD13O,1.000000X2.100000*%
%ADD14O,1.000000X1.600000*%
%ADD15R,1.700000X1.700000*%
%ADD16C,1.700000*%
G04 APERTURE END LIST*
D10*
%TO.C,SW11*%
X204000000Y-46000000D03*
X210500000Y-46000000D03*
X204000000Y-50500000D03*
X210500000Y-50500000D03*
%TD*%
%TO.C,SW8*%
X168000000Y-46000000D03*
X174500000Y-46000000D03*
X168000000Y-50500000D03*
X174500000Y-50500000D03*
%TD*%
%TO.C,SW13*%
X84000000Y-58000000D03*
X90500000Y-58000000D03*
X84000000Y-62500000D03*
X90500000Y-62500000D03*
%TD*%
%TO.C,SW24*%
X84000000Y-70000000D03*
X90500000Y-70000000D03*
X84000000Y-74500000D03*
X90500000Y-74500000D03*
%TD*%
D11*
%TO.C,H3*%
X78000000Y-138125000D03*
%TD*%
D10*
%TO.C,SW47*%
X96000000Y-94000000D03*
X102500000Y-94000000D03*
X96000000Y-98500000D03*
X102500000Y-98500000D03*
%TD*%
%TO.C,SW20*%
X168000000Y-58000000D03*
X174500000Y-58000000D03*
X168000000Y-62500000D03*
X174500000Y-62500000D03*
%TD*%
%TO.C,SW28*%
X132000000Y-70000000D03*
X138500000Y-70000000D03*
X132000000Y-74500000D03*
X138500000Y-74500000D03*
%TD*%
%TO.C,SW5*%
X132000000Y-46000000D03*
X138500000Y-46000000D03*
X132000000Y-50500000D03*
X138500000Y-50500000D03*
%TD*%
D12*
%TO.C,J3*%
X201695000Y-112155000D03*
X207475000Y-112155000D03*
D13*
X200265000Y-111625000D03*
D14*
X200265000Y-115805000D03*
D13*
X208905000Y-111625000D03*
D14*
X208905000Y-115805000D03*
%TD*%
D10*
%TO.C,SW14*%
X96000000Y-58000000D03*
X102500000Y-58000000D03*
X96000000Y-62500000D03*
X102500000Y-62500000D03*
%TD*%
%TO.C,SW39*%
X132000000Y-82000000D03*
X138500000Y-82000000D03*
X132000000Y-86500000D03*
X138500000Y-86500000D03*
%TD*%
%TO.C,SW45*%
X204000000Y-82000000D03*
X210500000Y-82000000D03*
X204000000Y-86500000D03*
X210500000Y-86500000D03*
%TD*%
%TO.C,SW2*%
X96000000Y-46000000D03*
X102500000Y-46000000D03*
X96000000Y-50500000D03*
X102500000Y-50500000D03*
%TD*%
%TO.C,SW35*%
X84000000Y-82000000D03*
X90500000Y-82000000D03*
X84000000Y-86500000D03*
X90500000Y-86500000D03*
%TD*%
%TO.C,SW36*%
X96000000Y-82000000D03*
X102500000Y-82000000D03*
X96000000Y-86500000D03*
X102500000Y-86500000D03*
%TD*%
D11*
%TO.C,H2*%
X222000000Y-40000000D03*
%TD*%
D10*
%TO.C,SW51*%
X192000000Y-94000000D03*
X198500000Y-94000000D03*
X192000000Y-98500000D03*
X198500000Y-98500000D03*
%TD*%
%TO.C,SW7*%
X156000000Y-46000000D03*
X162500000Y-46000000D03*
X156000000Y-50500000D03*
X162500000Y-50500000D03*
%TD*%
%TO.C,SW49*%
X168000000Y-94000000D03*
X174500000Y-94000000D03*
X168000000Y-98500000D03*
X174500000Y-98500000D03*
%TD*%
%TO.C,SW22*%
X192000000Y-58000000D03*
X198500000Y-58000000D03*
X192000000Y-62500000D03*
X198500000Y-62500000D03*
%TD*%
%TO.C,SW32*%
X180000000Y-70000000D03*
X186500000Y-70000000D03*
X180000000Y-74500000D03*
X186500000Y-74500000D03*
%TD*%
D11*
%TO.C,H4*%
X222000000Y-138125000D03*
%TD*%
D10*
%TO.C,SW29*%
X144000000Y-70000000D03*
X150500000Y-70000000D03*
X144000000Y-74500000D03*
X150500000Y-74500000D03*
%TD*%
D11*
%TO.C,H1*%
X78000000Y-40000000D03*
%TD*%
D10*
%TO.C,SW38*%
X120000000Y-82000000D03*
X126500000Y-82000000D03*
X120000000Y-86500000D03*
X126500000Y-86500000D03*
%TD*%
%TO.C,SW21*%
X180000000Y-58000000D03*
X186500000Y-58000000D03*
X180000000Y-62500000D03*
X186500000Y-62500000D03*
%TD*%
%TO.C,SW46*%
X84000000Y-94000000D03*
X90500000Y-94000000D03*
X84000000Y-98500000D03*
X90500000Y-98500000D03*
%TD*%
%TO.C,SW1*%
X84000000Y-46000000D03*
X90500000Y-46000000D03*
X84000000Y-50500000D03*
X90500000Y-50500000D03*
%TD*%
%TO.C,SW25*%
X96000000Y-70000000D03*
X102500000Y-70000000D03*
X96000000Y-74500000D03*
X102500000Y-74500000D03*
%TD*%
%TO.C,SW18*%
X144000000Y-58000000D03*
X150500000Y-58000000D03*
X144000000Y-62500000D03*
X150500000Y-62500000D03*
%TD*%
%TO.C,SW15*%
X108000000Y-58000000D03*
X114500000Y-58000000D03*
X108000000Y-62500000D03*
X114500000Y-62500000D03*
%TD*%
%TO.C,SW12*%
X216000000Y-46000000D03*
X222500000Y-46000000D03*
X216000000Y-50500000D03*
X222500000Y-50500000D03*
%TD*%
%TO.C,SW53*%
X216000000Y-94000000D03*
X222500000Y-94000000D03*
X216000000Y-98500000D03*
X222500000Y-98500000D03*
%TD*%
D15*
%TO.C,J2*%
X162430000Y-114355000D03*
D16*
X164970000Y-114355000D03*
X162430000Y-116895000D03*
X164970000Y-116895000D03*
X162430000Y-119435000D03*
X164970000Y-119435000D03*
%TD*%
D10*
%TO.C,SW37*%
X108000000Y-82000000D03*
X114500000Y-82000000D03*
X108000000Y-86500000D03*
X114500000Y-86500000D03*
%TD*%
%TO.C,SW41*%
X156000000Y-82000000D03*
X162500000Y-82000000D03*
X156000000Y-86500000D03*
X162500000Y-86500000D03*
%TD*%
%TO.C,SW4*%
X120000000Y-46000000D03*
X126500000Y-46000000D03*
X120000000Y-50500000D03*
X126500000Y-50500000D03*
%TD*%
%TO.C,SW42*%
X168000000Y-82000000D03*
X174500000Y-82000000D03*
X168000000Y-86500000D03*
X174500000Y-86500000D03*
%TD*%
%TO.C,SW30*%
X156000000Y-70000000D03*
X162500000Y-70000000D03*
X156000000Y-74500000D03*
X162500000Y-74500000D03*
%TD*%
%TO.C,SW17*%
X132000000Y-58000000D03*
X138500000Y-58000000D03*
X132000000Y-62500000D03*
X138500000Y-62500000D03*
%TD*%
%TO.C,SW6*%
X144000000Y-46000000D03*
X150500000Y-46000000D03*
X144000000Y-50500000D03*
X150500000Y-50500000D03*
%TD*%
%TO.C,SW31*%
X168000000Y-70000000D03*
X174500000Y-70000000D03*
X168000000Y-74500000D03*
X174500000Y-74500000D03*
%TD*%
%TO.C,SW33*%
X192000000Y-70000000D03*
X198500000Y-70000000D03*
X192000000Y-74500000D03*
X198500000Y-74500000D03*
%TD*%
%TO.C,SW23*%
X204000000Y-58000000D03*
X210500000Y-58000000D03*
X204000000Y-62500000D03*
X210500000Y-62500000D03*
%TD*%
%TO.C,SW16*%
X120000000Y-58000000D03*
X126500000Y-58000000D03*
X120000000Y-62500000D03*
X126500000Y-62500000D03*
%TD*%
%TO.C,SW9*%
X180000000Y-46000000D03*
X186500000Y-46000000D03*
X180000000Y-50500000D03*
X186500000Y-50500000D03*
%TD*%
%TO.C,SW27*%
X120000000Y-70000000D03*
X126500000Y-70000000D03*
X120000000Y-74500000D03*
X126500000Y-74500000D03*
%TD*%
%TO.C,SW52*%
X204000000Y-94000000D03*
X210500000Y-94000000D03*
X204000000Y-98500000D03*
X210500000Y-98500000D03*
%TD*%
%TO.C,SW43*%
X180000000Y-82000000D03*
X186500000Y-82000000D03*
X180000000Y-86500000D03*
X186500000Y-86500000D03*
%TD*%
%TO.C,SW26*%
X108000000Y-70000000D03*
X114500000Y-70000000D03*
X108000000Y-74500000D03*
X114500000Y-74500000D03*
%TD*%
%TO.C,SW19*%
X156000000Y-58000000D03*
X162500000Y-58000000D03*
X156000000Y-62500000D03*
X162500000Y-62500000D03*
%TD*%
D15*
%TO.C,J1*%
X141675000Y-118165000D03*
D16*
X141675000Y-120705000D03*
X141675000Y-123245000D03*
X141675000Y-125785000D03*
X141675000Y-128325000D03*
X141675000Y-130865000D03*
%TD*%
D10*
%TO.C,SW10*%
X192000000Y-46000000D03*
X198500000Y-46000000D03*
X192000000Y-50500000D03*
X198500000Y-50500000D03*
%TD*%
%TO.C,SW34*%
X204000000Y-70000000D03*
X210500000Y-70000000D03*
X204000000Y-74500000D03*
X210500000Y-74500000D03*
%TD*%
%TO.C,SW3*%
X108000000Y-46000000D03*
X114500000Y-46000000D03*
X108000000Y-50500000D03*
X114500000Y-50500000D03*
%TD*%
%TO.C,SW50*%
X180000000Y-94000000D03*
X186500000Y-94000000D03*
X180000000Y-98500000D03*
X186500000Y-98500000D03*
%TD*%
%TO.C,SW44*%
X192000000Y-82000000D03*
X198500000Y-82000000D03*
X192000000Y-86500000D03*
X198500000Y-86500000D03*
%TD*%
%TO.C,SW40*%
X144000000Y-82000000D03*
X150500000Y-82000000D03*
X144000000Y-86500000D03*
X150500000Y-86500000D03*
%TD*%
%TO.C,SW48*%
X132000000Y-94000000D03*
X138500000Y-94000000D03*
X132000000Y-98500000D03*
X138500000Y-98500000D03*
%TD*%
M02*
