M48
; DRILL file KiCad 10.0.3 date 2026-06-15T02:07:16
; FORMAT={-:-/ absolute / metric / decimal}
; #@! TF.CreationDate,2026-06-15T02:07:16-07:00
; #@! TF.GenerationSoftware,Kicad,Pcbnew,10.0.3
; #@! TF.FileFunction,MixedPlating,1,2
FMAT,2
METRIC
; #@! TA.AperFunction,Plated,PTH,ViaDrill
T1C0.300
; #@! TA.AperFunction,Plated,PTH,ComponentDrill
T2C0.600
; #@! TA.AperFunction,Plated,PTH,ComponentDrill
T3C1.000
; #@! TA.AperFunction,Plated,PTH,ComponentDrill
T4C1.100
; #@! TA.AperFunction,NonPlated,NPTH,ComponentDrill
T5C0.650
%
G90
G05
T1
X85.87Y-109.936
X87.093Y-108.26
X87.316Y-116.956
X87.611Y-118.137
X87.995Y-109.81
X88.717Y-104.417
X88.795Y-117.399
X89.391Y-80.82
X89.546Y-107.446
X89.978Y-117.476
X90.395Y-109.825
X91.308Y-116.578
X92.127Y-117.966
X93.073Y-105.306
X93.275Y-106.804
X94.45Y-97.492
X94.551Y-112.407
X96.283Y-117.595
X96.345Y-111.758
X96.411Y-79.933
X96.722Y-90.783
X97.167Y-79.319
X98.63Y-83.454
X99.633Y-69.131
X99.757Y-90.036
X101.687Y-107.385
X105.556Y-94.049
X105.949Y-67.569
X108.457Y-90.036
X117.236Y-66.465
X120.158Y-109.409
X120.169Y-111.025
X120.716Y-90.423
X123.143Y-121.031
X135.337Y-66.225
X138.361Y-110.47
X145.429Y-55.319
X145.945Y-56.096
X147.018Y-68.171
X152.965Y-70.183
X153.337Y-111.213
X153.354Y-84.591
X153.565Y-65.373
X155.912Y-88.982
X158.466Y-55.066
X161.194Y-68.764
X161.514Y-111.623
X167.912Y-78.995
X169.53Y-85.336
X169.65Y-89.159
X171.243Y-55.097
X181.023Y-67.606
X181.65Y-89.177
X195.181Y-90.539
X195.675Y-68.224
X196.88Y-57.224
X197.014Y-76.069
X204.585Y-111.95
X210.294Y-110.44
X216.113Y-102.49
T3
X141.675Y-118.165
X141.675Y-120.705
X141.675Y-123.245
X141.675Y-125.785
X141.675Y-128.325
X141.675Y-130.865
X162.43Y-114.355
X162.43Y-116.895
X162.43Y-119.435
X164.97Y-114.355
X164.97Y-116.895
X164.97Y-119.435
T4
X84.0Y-46.0
X84.0Y-50.5
X84.0Y-58.0
X84.0Y-62.5
X84.0Y-70.0
X84.0Y-74.5
X84.0Y-82.0
X84.0Y-86.5
X84.0Y-94.0
X84.0Y-98.5
X90.5Y-46.0
X90.5Y-50.5
X90.5Y-58.0
X90.5Y-62.5
X90.5Y-70.0
X90.5Y-74.5
X90.5Y-82.0
X90.5Y-86.5
X90.5Y-94.0
X90.5Y-98.5
X96.0Y-46.0
X96.0Y-50.5
X96.0Y-58.0
X96.0Y-62.5
X96.0Y-70.0
X96.0Y-74.5
X96.0Y-82.0
X96.0Y-86.5
X96.0Y-94.0
X96.0Y-98.5
X102.5Y-46.0
X102.5Y-50.5
X102.5Y-58.0
X102.5Y-62.5
X102.5Y-70.0
X102.5Y-74.5
X102.5Y-82.0
X102.5Y-86.5
X102.5Y-94.0
X102.5Y-98.5
X108.0Y-46.0
X108.0Y-50.5
X108.0Y-58.0
X108.0Y-62.5
X108.0Y-70.0
X108.0Y-74.5
X108.0Y-82.0
X108.0Y-86.5
X114.5Y-46.0
X114.5Y-50.5
X114.5Y-58.0
X114.5Y-62.5
X114.5Y-70.0
X114.5Y-74.5
X114.5Y-82.0
X114.5Y-86.5
X120.0Y-46.0
X120.0Y-50.5
X120.0Y-58.0
X120.0Y-62.5
X120.0Y-70.0
X120.0Y-74.5
X120.0Y-82.0
X120.0Y-86.5
X126.5Y-46.0
X126.5Y-50.5
X126.5Y-58.0
X126.5Y-62.5
X126.5Y-70.0
X126.5Y-74.5
X126.5Y-82.0
X126.5Y-86.5
X132.0Y-46.0
X132.0Y-50.5
X132.0Y-58.0
X132.0Y-62.5
X132.0Y-70.0
X132.0Y-74.5
X132.0Y-82.0
X132.0Y-86.5
X132.0Y-94.0
X132.0Y-98.5
X138.5Y-46.0
X138.5Y-50.5
X138.5Y-58.0
X138.5Y-62.5
X138.5Y-70.0
X138.5Y-74.5
X138.5Y-82.0
X138.5Y-86.5
X138.5Y-94.0
X138.5Y-98.5
X144.0Y-46.0
X144.0Y-50.5
X144.0Y-58.0
X144.0Y-62.5
X144.0Y-70.0
X144.0Y-74.5
X144.0Y-82.0
X144.0Y-86.5
X150.5Y-46.0
X150.5Y-50.5
X150.5Y-58.0
X150.5Y-62.5
X150.5Y-70.0
X150.5Y-74.5
X150.5Y-82.0
X150.5Y-86.5
X156.0Y-46.0
X156.0Y-50.5
X156.0Y-58.0
X156.0Y-62.5
X156.0Y-70.0
X156.0Y-74.5
X156.0Y-82.0
X156.0Y-86.5
X162.5Y-46.0
X162.5Y-50.5
X162.5Y-58.0
X162.5Y-62.5
X162.5Y-70.0
X162.5Y-74.5
X162.5Y-82.0
X162.5Y-86.5
X168.0Y-46.0
X168.0Y-50.5
X168.0Y-58.0
X168.0Y-62.5
X168.0Y-70.0
X168.0Y-74.5
X168.0Y-82.0
X168.0Y-86.5
X168.0Y-94.0
X168.0Y-98.5
X174.5Y-46.0
X174.5Y-50.5
X174.5Y-58.0
X174.5Y-62.5
X174.5Y-70.0
X174.5Y-74.5
X174.5Y-82.0
X174.5Y-86.5
X174.5Y-94.0
X174.5Y-98.5
X180.0Y-46.0
X180.0Y-50.5
X180.0Y-58.0
X180.0Y-62.5
X180.0Y-70.0
X180.0Y-74.5
X180.0Y-82.0
X180.0Y-86.5
X180.0Y-94.0
X180.0Y-98.5
X186.5Y-46.0
X186.5Y-50.5
X186.5Y-58.0
X186.5Y-62.5
X186.5Y-70.0
X186.5Y-74.5
X186.5Y-82.0
X186.5Y-86.5
X186.5Y-94.0
X186.5Y-98.5
X192.0Y-46.0
X192.0Y-50.5
X192.0Y-58.0
X192.0Y-62.5
X192.0Y-70.0
X192.0Y-74.5
X192.0Y-82.0
X192.0Y-86.5
X192.0Y-94.0
X192.0Y-98.5
X198.5Y-46.0
X198.5Y-50.5
X198.5Y-58.0
X198.5Y-62.5
X198.5Y-70.0
X198.5Y-74.5
X198.5Y-82.0
X198.5Y-86.5
X198.5Y-94.0
X198.5Y-98.5
X204.0Y-46.0
X204.0Y-50.5
X204.0Y-58.0
X204.0Y-62.5
X204.0Y-70.0
X204.0Y-74.5
X204.0Y-82.0
X204.0Y-86.5
X204.0Y-94.0
X204.0Y-98.5
X210.5Y-46.0
X210.5Y-50.5
X210.5Y-58.0
X210.5Y-62.5
X210.5Y-70.0
X210.5Y-74.5
X210.5Y-82.0
X210.5Y-86.5
X210.5Y-94.0
X210.5Y-98.5
X216.0Y-46.0
X216.0Y-50.5
X216.0Y-94.0
X216.0Y-98.5
X222.5Y-46.0
X222.5Y-50.5
X222.5Y-94.0
X222.5Y-98.5
T5
X201.695Y-112.155
X207.475Y-112.155
T2
X200.265Y-111.075G85X200.265Y-112.175
G05
X200.265Y-115.505G85X200.265Y-116.105
G05
X208.905Y-111.075G85X208.905Y-112.175
G05
X208.905Y-115.505G85X208.905Y-116.105
G05
M30
